<?xml version="1.0" encoding="utf-8" standalone="no"?>
<!DOCTYPE svg PUBLIC "-//W3C//DTD SVG 1.1//EN"
  "http://www.w3.org/Graphics/SVG/1.1/DTD/svg11.dtd">
<svg xmlns:xlink="http://www.w3.org/1999/xlink" width="567.85462pt" height="446.597187pt" viewBox="0 0 567.85462 446.597187" xmlns="http://www.w3.org/2000/svg" version="1.1">
 <metadata>
  <rdf:RDF xmlns:dc="http://purl.org/dc/elements/1.1/" xmlns:cc="http://creativecommons.org/ns#" xmlns:rdf="http://www.w3.org/1999/02/22-rdf-syntax-ns#">
   <cc:Work>
    <dc:type rdf:resource="http://purl.org/dc/dcmitype/StillImage"/>
    <dc:date>2026-01-03T17:34:16.275269</dc:date>
    <dc:format>image/svg+xml</dc:format>
    <dc:creator>
     <cc:Agent>
      <dc:title>Matplotlib v3.9.2, https://matplotlib.org/</dc:title>
     </cc:Agent>
    </dc:creator>
   </cc:Work>
  </rdf:RDF>
 </metadata>
 <defs>
  <style type="text/css">*{stroke-linejoin: round; stroke-linecap: butt}</style>
 </defs>
 <g id="figure_1">
  <g id="patch_1">
   <path d="M 0 446.597187 
L 567.85462 446.597187 
L 567.85462 0 
L 0 0 
z
" style="fill: #ffffff"/>
  </g>
  <g id="axes_1">
   <g id="patch_2">
    <path d="M 64.22625 415.1275 
L 560.65462 415.1275 
L 560.65462 31.74125 
L 64.22625 31.74125 
z
" style="fill: #ffffff"/>
   </g>
   <g id="PolyCollection_1">
    <defs>
     <path id="m2dd1be6be2" d="M 118.844476 -48.896335 
L 116.985947 -48.896335 
L 116.803216 -49.24857 
L 116.593329 -49.600806 
L 116.354048 -49.953041 
L 116.083264 -50.305276 
L 115.779046 -50.657511 
L 115.43969 -51.009747 
L 115.063764 -51.361982 
L 114.650136 -51.714217 
L 114.197998 -52.066452 
L 113.706874 -52.418687 
L 113.17661 -52.770923 
L 112.607355 -53.123158 
L 111.999527 -53.475393 
L 111.353765 -53.827628 
L 110.670877 -54.179863 
L 109.951789 -54.532099 
L 109.197487 -54.884334 
L 108.408979 -55.236569 
L 107.587267 -55.588804 
L 106.733344 -55.94104 
L 105.848215 -56.293275 
L 104.932949 -56.64551 
L 103.988761 -56.997745 
L 103.017125 -57.34998 
L 102.019914 -57.702216 
L 100.999555 -58.054451 
L 99.959196 -58.406686 
L 98.902868 -58.758921 
L 97.835634 -59.111156 
L 96.763706 -59.463392 
L 95.694511 -59.815627 
L 94.636702 -60.167862 
L 93.600103 -60.520097 
L 92.595565 -60.872333 
L 91.634748 -61.224568 
L 90.729818 -61.576803 
L 89.893074 -61.929038 
L 89.136506 -62.281273 
L 88.471318 -62.633509 
L 87.907425 -62.985744 
L 87.452952 -63.337979 
L 87.113772 -63.690214 
L 86.893101 -64.042449 
L 86.791176 -64.394685 
L 86.80506 -64.74692 
L 86.928564 -65.099155 
L 87.152323 -65.45139 
L 87.464016 -65.803626 
L 87.848743 -66.155861 
L 88.289528 -66.508096 
L 88.76795 -66.860331 
L 89.264858 -67.212566 
L 89.761149 -67.564802 
L 90.23857 -67.917037 
L 90.680497 -68.269272 
L 91.072666 -68.621507 
L 91.403808 -68.973743 
L 91.66616 -69.325978 
L 91.855821 -69.678213 
L 91.972942 -70.030448 
L 92.021732 -70.382683 
L 92.010279 -70.734919 
L 91.950202 -71.087154 
L 91.856139 -71.439389 
L 91.745107 -71.791624 
L 91.635759 -72.143859 
L 91.547576 -72.496095 
L 91.500032 -72.84833 
L 91.511773 -73.200565 
L 91.599843 -73.5528 
L 91.779004 -73.905036 
L 92.061158 -74.257271 
L 92.454919 -74.609506 
L 92.965327 -74.961741 
L 93.593727 -75.313976 
L 94.337806 -75.666212 
L 95.191774 -76.018447 
L 96.146684 -76.370682 
L 97.190861 -76.722917 
L 98.310413 -77.075152 
L 99.489808 -77.427388 
L 100.71247 -77.779623 
L 101.961384 -78.131858 
L 103.219663 -78.484093 
L 104.471077 -78.836329 
L 105.700506 -79.188564 
L 106.894314 -79.540799 
L 108.040634 -79.893034 
L 109.129561 -80.245269 
L 110.153247 -80.597505 
L 111.105923 -80.94974 
L 111.983832 -81.301975 
L 112.785105 -81.65421 
L 113.50959 -82.006445 
L 114.158631 -82.358681 
L 114.73484 -82.710916 
L 115.241847 -83.063151 
L 115.684056 -83.415386 
L 116.066416 -83.767622 
L 119.764008 -83.767622 
L 119.764008 -83.767622 
L 120.146367 -83.415386 
L 120.588576 -83.063151 
L 121.095583 -82.710916 
L 121.671792 -82.358681 
L 122.320833 -82.006445 
L 123.045318 -81.65421 
L 123.846592 -81.301975 
L 124.7245 -80.94974 
L 125.677176 -80.597505 
L 126.700863 -80.245269 
L 127.789789 -79.893034 
L 128.93611 -79.540799 
L 130.129918 -79.188564 
L 131.359346 -78.836329 
L 132.61076 -78.484093 
L 133.869039 -78.131858 
L 135.117953 -77.779623 
L 136.340616 -77.427388 
L 137.52001 -77.075152 
L 138.639562 -76.722917 
L 139.683739 -76.370682 
L 140.638649 -76.018447 
L 141.492618 -75.666212 
L 142.236696 -75.313976 
L 142.865097 -74.961741 
L 143.375504 -74.609506 
L 143.769265 -74.257271 
L 144.051419 -73.905036 
L 144.23058 -73.5528 
L 144.318651 -73.200565 
L 144.330391 -72.84833 
L 144.282848 -72.496095 
L 144.194665 -72.143859 
L 144.085317 -71.791624 
L 143.974284 -71.439389 
L 143.880221 -71.087154 
L 143.820144 -70.734919 
L 143.808691 -70.382683 
L 143.857481 -70.030448 
L 143.974603 -69.678213 
L 144.164263 -69.325978 
L 144.426615 -68.973743 
L 144.757757 -68.621507 
L 145.149926 -68.269272 
L 145.591853 -67.917037 
L 146.069274 -67.564802 
L 146.565565 -67.212566 
L 147.062474 -66.860331 
L 147.540896 -66.508096 
L 147.981681 -66.155861 
L 148.366407 -65.803626 
L 148.678101 -65.45139 
L 148.901859 -65.099155 
L 149.025363 -64.74692 
L 149.039247 -64.394685 
L 148.937323 -64.042449 
L 148.716651 -63.690214 
L 148.377471 -63.337979 
L 147.922999 -62.985744 
L 147.359105 -62.633509 
L 146.693917 -62.281273 
L 145.937349 -61.929038 
L 145.100605 -61.576803 
L 144.195675 -61.224568 
L 143.234858 -60.872333 
L 142.23032 -60.520097 
L 141.193721 -60.167862 
L 140.135913 -59.815627 
L 139.066717 -59.463392 
L 137.994789 -59.111156 
L 136.927556 -58.758921 
L 135.871228 -58.406686 
L 134.830868 -58.054451 
L 133.810509 -57.702216 
L 132.813298 -57.34998 
L 131.841662 -56.997745 
L 130.897474 -56.64551 
L 129.982208 -56.293275 
L 129.097079 -55.94104 
L 128.243156 -55.588804 
L 127.421445 -55.236569 
L 126.632936 -54.884334 
L 125.878634 -54.532099 
L 125.159546 -54.179863 
L 124.476659 -53.827628 
L 123.830896 -53.475393 
L 123.223068 -53.123158 
L 122.653813 -52.770923 
L 122.123549 -52.418687 
L 121.632425 -52.066452 
L 121.180287 -51.714217 
L 120.766659 -51.361982 
L 120.390733 -51.009747 
L 120.051377 -50.657511 
L 119.747159 -50.305276 
L 119.476375 -49.953041 
L 119.237095 -49.600806 
L 119.027208 -49.24857 
L 118.844476 -48.896335 
z
" style="stroke: #676767; stroke-width: 2"/>
    </defs>
    <g clip-path="url(#p0d3a06c2d2)">
     <use xlink:href="#m2dd1be6be2" x="0" y="446.597187" style="fill: #cfcfcf; stroke: #676767; stroke-width: 2"/>
    </g>
   </g>
   <g id="PolyCollection_2">
    <defs>
     <path id="m200e491b89" d="M 196.730366 -109.654932 
L 194.720236 -109.654932 
L 194.526842 -110.320612 
L 194.304741 -110.986293 
L 194.05134 -111.651974 
L 193.76409 -112.317654 
L 193.440525 -112.983335 
L 193.078306 -113.649015 
L 192.675266 -114.314696 
L 192.229448 -114.980377 
L 191.739141 -115.646057 
L 191.202915 -116.311738 
L 190.619648 -116.977418 
L 189.988548 -117.643099 
L 189.309184 -118.30878 
L 188.581494 -118.97446 
L 187.805817 -119.640141 
L 186.982907 -120.305821 
L 186.113963 -120.971502 
L 185.200659 -121.637183 
L 184.245178 -122.302863 
L 183.250259 -122.968544 
L 182.219241 -123.634224 
L 181.156111 -124.299905 
L 180.065558 -124.965585 
L 178.953015 -125.631266 
L 177.824689 -126.296947 
L 176.687581 -126.962627 
L 175.549476 -127.628308 
L 174.418905 -128.293988 
L 173.305072 -128.959669 
L 172.217743 -129.62535 
L 171.167091 -130.29103 
L 170.163501 -130.956711 
L 169.217332 -131.622391 
L 168.338653 -132.288072 
L 167.536944 -132.953753 
L 166.820789 -133.619433 
L 166.197562 -134.285114 
L 165.673128 -134.950794 
L 165.25156 -135.616475 
L 164.934912 -136.282156 
L 164.723028 -136.947836 
L 164.613428 -137.613517 
L 164.601265 -138.279197 
L 164.679365 -138.944878 
L 164.838348 -139.610558 
L 165.066838 -140.276239 
L 165.35175 -140.94192 
L 165.678652 -141.6076 
L 166.032193 -142.273281 
L 166.396571 -142.938961 
L 166.756043 -143.604642 
L 167.09545 -144.270323 
L 167.40074 -144.936003 
L 167.659464 -145.601684 
L 167.861245 -146.267364 
L 167.998181 -146.933045 
L 168.065175 -147.598726 
L 168.060183 -148.264406 
L 167.984359 -148.930087 
L 167.842089 -149.595767 
L 167.640921 -150.261448 
L 167.391374 -150.927129 
L 167.106638 -151.592809 
L 166.802173 -152.25849 
L 166.495213 -152.92417 
L 166.204204 -153.589851 
L 165.948175 -154.255531 
L 165.746091 -154.921212 
L 165.616185 -155.586893 
L 165.575323 -156.252573 
L 165.638405 -156.918254 
L 165.817838 -157.583934 
L 166.123103 -158.249615 
L 166.56043 -158.915296 
L 167.132594 -159.580976 
L 167.83884 -160.246657 
L 168.674944 -160.912337 
L 169.633396 -161.578018 
L 170.703696 -162.243699 
L 171.872756 -162.909379 
L 173.125376 -163.57506 
L 174.444782 -164.24074 
L 175.813188 -164.906421 
L 177.212371 -165.572102 
L 178.624227 -166.237782 
L 180.031286 -166.903463 
L 181.417168 -167.569143 
L 182.766972 -168.234824 
L 184.067574 -168.900504 
L 185.307845 -169.566185 
L 186.478778 -170.231866 
L 187.573528 -170.897546 
L 188.587376 -171.563227 
L 189.517628 -172.228907 
L 190.363453 -172.894588 
L 191.125684 -173.560269 
L 191.806581 -174.225949 
L 192.40959 -174.89163 
L 192.939091 -175.55731 
L 198.51151 -175.55731 
L 198.51151 -175.55731 
L 199.041011 -174.89163 
L 199.644021 -174.225949 
L 200.324918 -173.560269 
L 201.087148 -172.894588 
L 201.932974 -172.228907 
L 202.863226 -171.563227 
L 203.877074 -170.897546 
L 204.971824 -170.231866 
L 206.142757 -169.566185 
L 207.383028 -168.900504 
L 208.68363 -168.234824 
L 210.033434 -167.569143 
L 211.419316 -166.903463 
L 212.826375 -166.237782 
L 214.238231 -165.572102 
L 215.637414 -164.906421 
L 217.00582 -164.24074 
L 218.325226 -163.57506 
L 219.577846 -162.909379 
L 220.746906 -162.243699 
L 221.817206 -161.578018 
L 222.775658 -160.912337 
L 223.611762 -160.246657 
L 224.318008 -159.580976 
L 224.890172 -158.915296 
L 225.327499 -158.249615 
L 225.632764 -157.583934 
L 225.812197 -156.918254 
L 225.875279 -156.252573 
L 225.834417 -155.586893 
L 225.704511 -154.921212 
L 225.502427 -154.255531 
L 225.246398 -153.589851 
L 224.955389 -152.92417 
L 224.648429 -152.25849 
L 224.343964 -151.592809 
L 224.059228 -150.927129 
L 223.809681 -150.261448 
L 223.608513 -149.595767 
L 223.466243 -148.930087 
L 223.390419 -148.264406 
L 223.385427 -147.598726 
L 223.452421 -146.933045 
L 223.589357 -146.267364 
L 223.791138 -145.601684 
L 224.049862 -144.936003 
L 224.355151 -144.270323 
L 224.694559 -143.604642 
L 225.054031 -142.938961 
L 225.418409 -142.273281 
L 225.77195 -141.6076 
L 226.098852 -140.94192 
L 226.383764 -140.276239 
L 226.612254 -139.610558 
L 226.771237 -138.944878 
L 226.849337 -138.279197 
L 226.837174 -137.613517 
L 226.727574 -136.947836 
L 226.51569 -136.282156 
L 226.199042 -135.616475 
L 225.777474 -134.950794 
L 225.25304 -134.285114 
L 224.629813 -133.619433 
L 223.913658 -132.953753 
L 223.111949 -132.288072 
L 222.23327 -131.622391 
L 221.287101 -130.956711 
L 220.283511 -130.29103 
L 219.232859 -129.62535 
L 218.14553 -128.959669 
L 217.031697 -128.293988 
L 215.901126 -127.628308 
L 214.76302 -126.962627 
L 213.625913 -126.296947 
L 212.497587 -125.631266 
L 211.385044 -124.965585 
L 210.294491 -124.299905 
L 209.231361 -123.634224 
L 208.200342 -122.968544 
L 207.205424 -122.302863 
L 206.249943 -121.637183 
L 205.336639 -120.971502 
L 204.467695 -120.305821 
L 203.644785 -119.640141 
L 202.869108 -118.97446 
L 202.141418 -118.30878 
L 201.462053 -117.643099 
L 200.830954 -116.977418 
L 200.247687 -116.311738 
L 199.711461 -115.646057 
L 199.221154 -114.980377 
L 198.775336 -114.314696 
L 198.372296 -113.649015 
L 198.010077 -112.983335 
L 197.686512 -112.317654 
L 197.399261 -111.651974 
L 197.145861 -110.986293 
L 196.92376 -110.320612 
L 196.730366 -109.654932 
z
" style="stroke: #676767; stroke-width: 2"/>
    </defs>
    <g clip-path="url(#p0d3a06c2d2)">
     <use xlink:href="#m200e491b89" x="0" y="446.597187" style="fill: #f8a0a3; stroke: #676767; stroke-width: 2"/>
    </g>
   </g>
   <g id="PolyCollection_3">
    <defs>
     <path id="m01eaf4bcf7" d="M 274.835502 -161.04114 
L 272.235278 -161.04114 
L 271.931155 -162.489675 
L 271.571628 -163.93821 
L 271.15051 -165.386745 
L 270.661795 -166.835281 
L 270.099875 -168.283816 
L 269.459779 -169.732351 
L 268.737424 -171.180886 
L 267.929869 -172.629421 
L 267.035568 -174.077956 
L 266.054596 -175.526492 
L 264.988844 -176.975027 
L 263.842169 -178.423562 
L 262.620486 -179.872097 
L 261.331795 -181.320632 
L 259.986131 -182.769167 
L 258.59544 -184.217702 
L 257.173379 -185.666238 
L 255.735041 -187.114773 
L 254.296621 -188.563308 
L 252.875027 -190.011843 
L 251.487459 -191.460378 
L 250.150961 -192.908913 
L 248.881986 -194.357449 
L 247.695969 -195.805984 
L 246.60694 -197.254519 
L 245.627193 -198.703054 
L 244.767021 -200.151589 
L 244.034526 -201.600124 
L 243.435515 -203.048659 
L 242.973485 -204.497195 
L 242.649679 -205.94573 
L 242.463228 -207.394265 
L 242.411355 -208.8428 
L 242.489624 -210.291335 
L 242.692231 -211.73987 
L 243.012304 -213.188406 
L 243.442206 -214.636941 
L 243.973815 -216.085476 
L 244.598774 -217.534011 
L 245.308689 -218.982546 
L 246.095284 -220.431081 
L 246.950486 -221.879617 
L 247.866461 -223.328152 
L 248.835594 -224.776687 
L 249.850432 -226.225222 
L 250.903589 -227.673757 
L 251.98764 -229.122292 
L 253.095012 -230.570827 
L 254.217896 -232.019363 
L 255.348176 -233.467898 
L 256.477403 -234.916433 
L 257.596823 -236.364968 
L 258.697438 -237.813503 
L 259.770138 -239.262038 
L 260.805863 -240.710574 
L 261.795808 -242.159109 
L 262.73166 -243.607644 
L 263.605845 -245.056179 
L 264.411773 -246.504714 
L 265.14407 -247.953249 
L 265.798788 -249.401784 
L 266.373567 -250.85032 
L 266.867747 -252.298855 
L 267.282425 -253.74739 
L 267.62045 -255.195925 
L 267.886349 -256.64446 
L 268.086191 -258.092995 
L 268.227398 -259.541531 
L 268.318493 -260.990066 
L 268.368823 -262.438601 
L 268.388233 -263.887136 
L 268.386743 -265.335671 
L 268.374204 -266.784206 
L 268.359982 -268.232741 
L 268.352657 -269.681277 
L 268.359763 -271.129812 
L 268.387582 -272.578347 
L 268.440991 -274.026882 
L 268.523373 -275.475417 
L 268.636591 -276.923952 
L 268.781033 -278.372488 
L 268.955706 -279.821023 
L 269.158392 -281.269558 
L 269.385835 -282.718093 
L 269.633969 -284.166628 
L 269.89815 -285.615163 
L 270.173408 -287.063699 
L 270.454671 -288.512234 
L 270.736989 -289.960769 
L 271.015717 -291.409304 
L 271.286669 -292.857839 
L 271.546233 -294.306374 
L 271.791442 -295.754909 
L 272.020017 -297.203445 
L 272.23036 -298.65198 
L 272.421529 -300.100515 
L 272.593182 -301.54905 
L 272.745503 -302.997585 
L 272.87912 -304.44612 
L 274.19166 -304.44612 
L 274.19166 -304.44612 
L 274.325277 -302.997585 
L 274.477599 -301.54905 
L 274.649252 -300.100515 
L 274.840421 -298.65198 
L 275.050764 -297.203445 
L 275.279338 -295.754909 
L 275.524548 -294.306374 
L 275.784111 -292.857839 
L 276.055063 -291.409304 
L 276.333792 -289.960769 
L 276.61611 -288.512234 
L 276.897373 -287.063699 
L 277.17263 -285.615163 
L 277.436812 -284.166628 
L 277.684945 -282.718093 
L 277.912389 -281.269558 
L 278.115074 -279.821023 
L 278.289747 -278.372488 
L 278.434189 -276.923952 
L 278.547407 -275.475417 
L 278.629789 -274.026882 
L 278.683199 -272.578347 
L 278.711018 -271.129812 
L 278.718124 -269.681277 
L 278.710798 -268.232741 
L 278.696576 -266.784206 
L 278.684038 -265.335671 
L 278.682547 -263.887136 
L 278.701958 -262.438601 
L 278.752287 -260.990066 
L 278.843383 -259.541531 
L 278.984589 -258.092995 
L 279.184432 -256.64446 
L 279.450331 -255.195925 
L 279.788356 -253.74739 
L 280.203034 -252.298855 
L 280.697213 -250.85032 
L 281.271992 -249.401784 
L 281.926711 -247.953249 
L 282.659008 -246.504714 
L 283.464935 -245.056179 
L 284.33912 -243.607644 
L 285.274973 -242.159109 
L 286.264918 -240.710574 
L 287.300642 -239.262038 
L 288.373342 -237.813503 
L 289.473958 -236.364968 
L 290.593377 -234.916433 
L 291.722605 -233.467898 
L 292.852884 -232.019363 
L 293.975768 -230.570827 
L 295.083141 -229.122292 
L 296.167191 -227.673757 
L 297.220348 -226.225222 
L 298.235186 -224.776687 
L 299.20432 -223.328152 
L 300.120295 -221.879617 
L 300.975497 -220.431081 
L 301.762092 -218.982546 
L 302.472007 -217.534011 
L 303.096965 -216.085476 
L 303.628574 -214.636941 
L 304.058477 -213.188406 
L 304.37855 -211.73987 
L 304.581157 -210.291335 
L 304.659426 -208.8428 
L 304.607552 -207.394265 
L 304.421102 -205.94573 
L 304.097295 -204.497195 
L 303.635265 -203.048659 
L 303.036255 -201.600124 
L 302.30376 -200.151589 
L 301.443587 -198.703054 
L 300.46384 -197.254519 
L 299.374811 -195.805984 
L 298.188794 -194.357449 
L 296.91982 -192.908913 
L 295.583322 -191.460378 
L 294.195753 -190.011843 
L 292.77416 -188.563308 
L 291.33574 -187.114773 
L 289.897402 -185.666238 
L 288.475341 -184.217702 
L 287.08465 -182.769167 
L 285.738986 -181.320632 
L 284.450295 -179.872097 
L 283.228612 -178.423562 
L 282.081936 -176.975027 
L 281.016184 -175.526492 
L 280.035212 -174.077956 
L 279.140911 -172.629421 
L 278.333357 -171.180886 
L 277.611001 -169.732351 
L 276.970905 -168.283816 
L 276.408986 -166.835281 
L 275.920271 -165.386745 
L 275.499153 -163.93821 
L 275.139625 -162.489675 
L 274.835502 -161.04114 
z
" style="stroke: #676767; stroke-width: 2"/>
    </defs>
    <g clip-path="url(#p0d3a06c2d2)">
     <use xlink:href="#m01eaf4bcf7" x="0" y="446.597187" style="fill: #fcba8f; stroke: #676767; stroke-width: 2"/>
    </g>
   </g>
   <g id="PolyCollection_4">
    <defs>
     <path id="mf2fafbcdcf" d="M 353.511767 -98.095801 
L 349.179192 -98.095801 
L 348.749134 -101.119372 
L 348.254135 -104.142942 
L 347.68888 -107.166513 
L 347.048539 -110.190083 
L 346.328981 -113.213654 
L 345.527004 -116.237225 
L 344.640565 -119.260795 
L 343.669011 -122.284366 
L 342.613288 -125.307936 
L 341.476132 -128.331507 
L 340.262221 -131.355078 
L 338.978276 -134.378648 
L 337.633118 -137.402219 
L 336.237643 -140.425789 
L 334.80474 -143.44936 
L 333.349135 -146.472931 
L 331.887148 -149.496501 
L 330.436397 -152.520072 
L 329.015428 -155.543642 
L 327.643291 -158.567213 
L 326.339081 -161.590784 
L 325.121448 -164.614354 
L 324.008108 -167.637925 
L 323.01535 -170.661495 
L 322.157591 -173.685066 
L 321.446963 -176.708636 
L 320.89297 -179.732207 
L 320.502223 -182.755778 
L 320.278256 -185.779348 
L 320.221444 -188.802919 
L 320.329008 -191.826489 
L 320.595126 -194.85006 
L 321.011123 -197.873631 
L 321.565748 -200.897201 
L 322.245521 -203.920772 
L 323.035129 -206.944342 
L 323.917864 -209.967913 
L 324.876083 -212.991484 
L 325.89167 -216.015054 
L 326.946488 -219.038625 
L 328.022803 -222.062195 
L 329.103672 -225.085766 
L 330.173281 -228.109337 
L 331.217223 -231.132907 
L 332.222722 -234.156478 
L 333.178789 -237.180048 
L 334.07632 -240.203619 
L 334.908138 -243.22719 
L 335.668975 -246.25076 
L 336.355423 -249.274331 
L 336.965836 -252.297901 
L 337.500209 -255.321472 
L 337.960034 -258.345042 
L 338.348146 -261.368613 
L 338.66856 -264.392184 
L 338.926304 -267.415754 
L 339.127262 -270.439325 
L 339.278015 -273.462895 
L 339.38569 -276.486466 
L 339.457814 -279.510037 
L 339.50218 -282.533607 
L 339.526704 -285.557178 
L 339.539298 -288.580748 
L 339.547737 -291.604319 
L 339.559531 -294.62789 
L 339.581796 -297.65146 
L 339.62113 -300.675031 
L 339.683494 -303.698601 
L 339.774098 -306.722172 
L 339.897303 -309.745743 
L 340.056537 -312.769313 
L 340.254227 -315.792884 
L 340.49176 -318.816454 
L 340.769463 -321.840025 
L 341.086621 -324.863596 
L 341.441513 -327.887166 
L 341.831483 -330.910737 
L 342.253038 -333.934307 
L 342.701966 -336.957878 
L 343.173475 -339.981449 
L 343.662347 -343.005019 
L 344.163096 -346.02859 
L 344.670132 -349.05216 
L 345.177919 -352.075731 
L 345.681119 -355.099301 
L 346.174729 -358.122872 
L 346.654188 -361.146443 
L 347.115472 -364.170013 
L 347.555155 -367.193584 
L 347.970455 -370.217154 
L 348.359244 -373.240725 
L 348.720049 -376.264296 
L 349.05202 -379.287866 
L 349.354889 -382.311437 
L 349.628913 -385.335007 
L 349.874808 -388.358578 
L 350.093674 -391.382149 
L 350.286921 -394.405719 
L 350.456193 -397.42929 
L 352.234766 -397.42929 
L 352.234766 -397.42929 
L 352.404039 -394.405719 
L 352.597285 -391.382149 
L 352.816151 -388.358578 
L 353.062046 -385.335007 
L 353.33607 -382.311437 
L 353.638939 -379.287866 
L 353.97091 -376.264296 
L 354.331715 -373.240725 
L 354.720504 -370.217154 
L 355.135804 -367.193584 
L 355.575487 -364.170013 
L 356.036771 -361.146443 
L 356.51623 -358.122872 
L 357.00984 -355.099301 
L 357.51304 -352.075731 
L 358.020827 -349.05216 
L 358.527863 -346.02859 
L 359.028612 -343.005019 
L 359.517484 -339.981449 
L 359.988993 -336.957878 
L 360.437921 -333.934307 
L 360.859476 -330.910737 
L 361.249447 -327.887166 
L 361.604338 -324.863596 
L 361.921496 -321.840025 
L 362.1992 -318.816454 
L 362.436732 -315.792884 
L 362.634422 -312.769313 
L 362.793656 -309.745743 
L 362.916861 -306.722172 
L 363.007465 -303.698601 
L 363.069829 -300.675031 
L 363.109163 -297.65146 
L 363.131428 -294.62789 
L 363.143223 -291.604319 
L 363.151662 -288.580748 
L 363.164256 -285.557178 
L 363.188779 -282.533607 
L 363.233145 -279.510037 
L 363.305269 -276.486466 
L 363.412944 -273.462895 
L 363.563697 -270.439325 
L 363.764655 -267.415754 
L 364.022399 -264.392184 
L 364.342813 -261.368613 
L 364.730925 -258.345042 
L 365.19075 -255.321472 
L 365.725123 -252.297901 
L 366.335536 -249.274331 
L 367.021985 -246.25076 
L 367.782822 -243.22719 
L 368.614639 -240.203619 
L 369.51217 -237.180048 
L 370.468237 -234.156478 
L 371.473737 -231.132907 
L 372.517679 -228.109337 
L 373.587287 -225.085766 
L 374.668156 -222.062195 
L 375.744471 -219.038625 
L 376.799289 -216.015054 
L 377.814876 -212.991484 
L 378.773095 -209.967913 
L 379.655831 -206.944342 
L 380.445439 -203.920772 
L 381.125212 -200.897201 
L 381.679837 -197.873631 
L 382.095833 -194.85006 
L 382.361951 -191.826489 
L 382.469515 -188.802919 
L 382.412703 -185.779348 
L 382.188736 -182.755778 
L 381.797989 -179.732207 
L 381.243996 -176.708636 
L 380.533368 -173.685066 
L 379.675609 -170.661495 
L 378.682851 -167.637925 
L 377.569511 -164.614354 
L 376.351879 -161.590784 
L 375.047668 -158.567213 
L 373.675531 -155.543642 
L 372.254562 -152.520072 
L 370.803812 -149.496501 
L 369.341825 -146.472931 
L 367.886219 -143.44936 
L 366.453317 -140.425789 
L 365.057841 -137.402219 
L 363.712683 -134.378648 
L 362.428739 -131.355078 
L 361.214827 -128.331507 
L 360.077671 -125.307936 
L 359.021948 -122.284366 
L 358.050394 -119.260795 
L 357.163955 -116.237225 
L 356.361978 -113.213654 
L 355.64242 -110.190083 
L 355.002079 -107.166513 
L 354.436824 -104.142942 
L 353.941825 -101.119372 
L 353.511767 -98.095801 
z
" style="stroke: #676767; stroke-width: 2"/>
    </defs>
    <g clip-path="url(#p0d3a06c2d2)">
     <use xlink:href="#mf2fafbcdcf" x="0" y="446.597187" style="fill: #f8f3a7; stroke: #676767; stroke-width: 2"/>
    </g>
   </g>
   <g id="PolyCollection_5">
    <defs>
     <path id="m592241ae70" d="M 430.137522 -127.163921 
L 428.173616 -127.163921 
L 427.980202 -128.63775 
L 427.757757 -130.111579 
L 427.503731 -131.585409 
L 427.21565 -133.059238 
L 426.891153 -134.533067 
L 426.528033 -136.006896 
L 426.124279 -137.480726 
L 425.678097 -138.954555 
L 425.18794 -140.428384 
L 424.65252 -141.902213 
L 424.07082 -143.376043 
L 423.4421 -144.849872 
L 422.7659 -146.323701 
L 422.042046 -147.797531 
L 421.270663 -149.27136 
L 420.45219 -150.745189 
L 419.587416 -152.219018 
L 418.677528 -153.692848 
L 417.724169 -155.166677 
L 416.729523 -156.640506 
L 415.6964 -158.114335 
L 414.628344 -159.588165 
L 413.529726 -161.061994 
L 412.405842 -162.535823 
L 411.262985 -164.009653 
L 410.108494 -165.483482 
L 408.950752 -166.957311 
L 407.799146 -168.43114 
L 406.663957 -169.90497 
L 405.556195 -171.378799 
L 404.487363 -172.852628 
L 403.469164 -174.326458 
L 402.513153 -175.800287 
L 401.630349 -177.274116 
L 400.83082 -178.747945 
L 400.12327 -180.221775 
L 399.514638 -181.695604 
L 399.009739 -183.169433 
L 398.610971 -184.643262 
L 398.318104 -186.117092 
L 398.12816 -187.590921 
L 398.035421 -189.06475 
L 398.031533 -190.53858 
L 398.105746 -192.012409 
L 398.245252 -193.486238 
L 398.435623 -194.960067 
L 398.661335 -196.433897 
L 398.906347 -197.907726 
L 399.15471 -199.381555 
L 399.39119 -200.855384 
L 399.601869 -202.329214 
L 399.774693 -203.803043 
L 399.899966 -205.276872 
L 399.970736 -206.750702 
L 399.983091 -208.224531 
L 399.936332 -209.69836 
L 399.833017 -211.172189 
L 399.678895 -212.646019 
L 399.482704 -214.119848 
L 399.255872 -215.593677 
L 399.012103 -217.067506 
L 398.766897 -218.541336 
L 398.536992 -220.015165 
L 398.339772 -221.488994 
L 398.192649 -222.962824 
L 398.112448 -224.436653 
L 398.114822 -225.910482 
L 398.213707 -227.384311 
L 398.420843 -228.858141 
L 398.745378 -230.33197 
L 399.193573 -231.805799 
L 399.768601 -233.279628 
L 400.470461 -234.753458 
L 401.29601 -236.227287 
L 402.239091 -237.701116 
L 403.290768 -239.174946 
L 404.439645 -240.648775 
L 405.672262 -242.122604 
L 406.973541 -243.596433 
L 408.327274 -245.070263 
L 409.716617 -246.544092 
L 411.124593 -248.017921 
L 412.534557 -249.49175 
L 413.930636 -250.96558 
L 415.298103 -252.439409 
L 416.623694 -253.913238 
L 417.895849 -255.387068 
L 419.104881 -256.860897 
L 420.243063 -258.334726 
L 421.304656 -259.808555 
L 422.285855 -261.282385 
L 423.18469 -262.756214 
L 424.000874 -264.230043 
L 424.735614 -265.703873 
L 425.391405 -267.177702 
L 425.9718 -268.651531 
L 426.481182 -270.12536 
L 426.924545 -271.59919 
L 427.307279 -273.073019 
L 431.003859 -273.073019 
L 431.003859 -273.073019 
L 431.386593 -271.59919 
L 431.829956 -270.12536 
L 432.339338 -268.651531 
L 432.919733 -267.177702 
L 433.575524 -265.703873 
L 434.310264 -264.230043 
L 435.126447 -262.756214 
L 436.025282 -261.282385 
L 437.006482 -259.808555 
L 438.068075 -258.334726 
L 439.206257 -256.860897 
L 440.415288 -255.387068 
L 441.687443 -253.913238 
L 443.013034 -252.439409 
L 444.380502 -250.96558 
L 445.776581 -249.49175 
L 447.186545 -248.017921 
L 448.594521 -246.544092 
L 449.983864 -245.070263 
L 451.337597 -243.596433 
L 452.638876 -242.122604 
L 453.871493 -240.648775 
L 455.02037 -239.174946 
L 456.072047 -237.701116 
L 457.015128 -236.227287 
L 457.840677 -234.753458 
L 458.542537 -233.279628 
L 459.117564 -231.805799 
L 459.56576 -230.33197 
L 459.890295 -228.858141 
L 460.097431 -227.384311 
L 460.196316 -225.910482 
L 460.19869 -224.436653 
L 460.118489 -222.962824 
L 459.971366 -221.488994 
L 459.774146 -220.015165 
L 459.544241 -218.541336 
L 459.299035 -217.067506 
L 459.055266 -215.593677 
L 458.828433 -214.119848 
L 458.632243 -212.646019 
L 458.478121 -211.172189 
L 458.374806 -209.69836 
L 458.328047 -208.224531 
L 458.340402 -206.750702 
L 458.411172 -205.276872 
L 458.536445 -203.803043 
L 458.709269 -202.329214 
L 458.919947 -200.855384 
L 459.156428 -199.381555 
L 459.404791 -197.907726 
L 459.649803 -196.433897 
L 459.875515 -194.960067 
L 460.065886 -193.486238 
L 460.205391 -192.012409 
L 460.279605 -190.53858 
L 460.275717 -189.06475 
L 460.182977 -187.590921 
L 459.993034 -186.117092 
L 459.700167 -184.643262 
L 459.301399 -183.169433 
L 458.7965 -181.695604 
L 458.187868 -180.221775 
L 457.480318 -178.747945 
L 456.680789 -177.274116 
L 455.797985 -175.800287 
L 454.841974 -174.326458 
L 453.823775 -172.852628 
L 452.754943 -171.378799 
L 451.647181 -169.90497 
L 450.511992 -168.43114 
L 449.360386 -166.957311 
L 448.202644 -165.483482 
L 447.048153 -164.009653 
L 445.905296 -162.535823 
L 444.781412 -161.061994 
L 443.682794 -159.588165 
L 442.614738 -158.114335 
L 441.581615 -156.640506 
L 440.586969 -155.166677 
L 439.63361 -153.692848 
L 438.723722 -152.219018 
L 437.858948 -150.745189 
L 437.040475 -149.27136 
L 436.269092 -147.797531 
L 435.545238 -146.323701 
L 434.869038 -144.849872 
L 434.240318 -143.376043 
L 433.658618 -141.902213 
L 433.123198 -140.428384 
L 432.633041 -138.954555 
L 432.186859 -137.480726 
L 431.783105 -136.006896 
L 431.419985 -134.533067 
L 431.095487 -133.059238 
L 430.807406 -131.585409 
L 430.553381 -130.111579 
L 430.330936 -128.63775 
L 430.137522 -127.163921 
z
" style="stroke: #676767; stroke-width: 2"/>
    </defs>
    <g clip-path="url(#p0d3a06c2d2)">
     <use xlink:href="#m592241ae70" x="0" y="446.597187" style="fill: #73e4c2; stroke: #676767; stroke-width: 2"/>
    </g>
   </g>
   <g id="PolyCollection_6">
    <defs>
     <path id="mc39a79eb3a" d="M 508.453705 -125.683846 
L 505.477611 -125.683846 
L 505.177098 -126.642452 
L 504.82911 -127.601059 
L 504.429018 -128.559666 
L 503.97231 -129.518273 
L 503.454717 -130.47688 
L 502.872359 -131.435487 
L 502.221894 -132.394094 
L 501.500678 -133.352701 
L 500.706924 -134.311308 
L 499.839863 -135.269915 
L 498.899888 -136.228522 
L 497.888688 -137.187129 
L 496.809357 -138.145736 
L 495.666475 -139.104343 
L 494.466154 -140.06295 
L 493.216045 -141.021557 
L 491.925298 -141.980164 
L 490.604478 -142.938771 
L 489.265428 -143.897378 
L 487.921089 -144.855984 
L 486.585266 -145.814591 
L 485.272354 -146.773198 
L 483.997031 -147.731805 
L 482.773915 -148.690412 
L 481.617207 -149.649019 
L 480.540319 -150.607626 
L 479.55551 -151.566233 
L 478.673538 -152.52484 
L 477.903336 -153.483447 
L 477.251735 -154.442054 
L 476.723235 -155.400661 
L 476.319844 -156.359268 
L 476.040985 -157.317875 
L 475.883481 -158.276482 
L 475.841623 -159.235089 
L 475.907311 -160.193696 
L 476.070281 -161.152303 
L 476.318397 -162.11091 
L 476.637999 -163.069516 
L 477.01431 -164.028123 
L 477.43187 -164.98673 
L 477.874988 -165.945337 
L 478.328204 -166.903944 
L 478.776727 -167.862551 
L 479.206857 -168.821158 
L 479.606351 -169.779765 
L 479.964748 -170.738372 
L 480.273622 -171.696979 
L 480.526768 -172.655586 
L 480.720321 -173.614193 
L 480.852793 -174.5728 
L 480.925048 -175.531407 
L 480.940206 -176.490014 
L 480.903493 -177.448621 
L 480.82203 -178.407228 
L 480.704591 -179.365835 
L 480.56132 -180.324442 
L 480.403424 -181.283048 
L 480.242852 -182.241655 
L 480.091971 -183.200262 
L 479.963229 -184.158869 
L 479.868843 -185.117476 
L 479.820486 -186.076083 
L 479.829 -187.03469 
L 479.904137 -187.993297 
L 480.054322 -188.951904 
L 480.286454 -189.910511 
L 480.605747 -190.869118 
L 481.015609 -191.827725 
L 481.517569 -192.786332 
L 482.11125 -193.744939 
L 482.794387 -194.703546 
L 483.562898 -195.662153 
L 484.410996 -196.62076 
L 485.331351 -197.579367 
L 486.315282 -198.537974 
L 487.352994 -199.49658 
L 488.433829 -200.455187 
L 489.54654 -201.413794 
L 490.67958 -202.372401 
L 491.821375 -203.331008 
L 492.960602 -204.289615 
L 494.086441 -205.248222 
L 495.188799 -206.206829 
L 496.258507 -207.165436 
L 497.287478 -208.124043 
L 498.268813 -209.08265 
L 499.196885 -210.041257 
L 500.067359 -210.999864 
L 500.87719 -211.958471 
L 501.624573 -212.917078 
L 502.308869 -213.875685 
L 502.930497 -214.834292 
L 503.490817 -215.792899 
L 503.991991 -216.751506 
L 504.436838 -217.710112 
L 504.828694 -218.668719 
L 505.171269 -219.627326 
L 505.468515 -220.585933 
L 508.462801 -220.585933 
L 508.462801 -220.585933 
L 508.760047 -219.627326 
L 509.102622 -218.668719 
L 509.494479 -217.710112 
L 509.939326 -216.751506 
L 510.440499 -215.792899 
L 511.000819 -214.834292 
L 511.622447 -213.875685 
L 512.306743 -212.917078 
L 513.054127 -211.958471 
L 513.863958 -210.999864 
L 514.734432 -210.041257 
L 515.662503 -209.08265 
L 516.643839 -208.124043 
L 517.672809 -207.165436 
L 518.742518 -206.206829 
L 519.844876 -205.248222 
L 520.970714 -204.289615 
L 522.109941 -203.331008 
L 523.251736 -202.372401 
L 524.384776 -201.413794 
L 525.497488 -200.455187 
L 526.578322 -199.49658 
L 527.616034 -198.537974 
L 528.599966 -197.579367 
L 529.52032 -196.62076 
L 530.368418 -195.662153 
L 531.136929 -194.703546 
L 531.820066 -193.744939 
L 532.413747 -192.786332 
L 532.915708 -191.827725 
L 533.32557 -190.869118 
L 533.644862 -189.910511 
L 533.876994 -188.951904 
L 534.027179 -187.993297 
L 534.102316 -187.03469 
L 534.110831 -186.076083 
L 534.062473 -185.117476 
L 533.968087 -184.158869 
L 533.839346 -183.200262 
L 533.688464 -182.241655 
L 533.527893 -181.283048 
L 533.369997 -180.324442 
L 533.226725 -179.365835 
L 533.109287 -178.407228 
L 533.027824 -177.448621 
L 532.99111 -176.490014 
L 533.006269 -175.531407 
L 533.078524 -174.5728 
L 533.210996 -173.614193 
L 533.404548 -172.655586 
L 533.657695 -171.696979 
L 533.966568 -170.738372 
L 534.324965 -169.779765 
L 534.72446 -168.821158 
L 535.154589 -167.862551 
L 535.603113 -166.903944 
L 536.056328 -165.945337 
L 536.499447 -164.98673 
L 536.917006 -164.028123 
L 537.293318 -163.069516 
L 537.61292 -162.11091 
L 537.861035 -161.152303 
L 538.024006 -160.193696 
L 538.089694 -159.235089 
L 538.047835 -158.276482 
L 537.890332 -157.317875 
L 537.611473 -156.359268 
L 537.208082 -155.400661 
L 536.679582 -154.442054 
L 536.02798 -153.483447 
L 535.257778 -152.52484 
L 534.375806 -151.566233 
L 533.390997 -150.607626 
L 532.314109 -149.649019 
L 531.157401 -148.690412 
L 529.934286 -147.731805 
L 528.658963 -146.773198 
L 527.346051 -145.814591 
L 526.010227 -144.855984 
L 524.665888 -143.897378 
L 523.326839 -142.938771 
L 522.006019 -141.980164 
L 520.715271 -141.021557 
L 519.465162 -140.06295 
L 518.264841 -139.104343 
L 517.121959 -138.145736 
L 516.042628 -137.187129 
L 515.031428 -136.228522 
L 514.091453 -135.269915 
L 513.224392 -134.311308 
L 512.430639 -133.352701 
L 511.709422 -132.394094 
L 511.058957 -131.435487 
L 510.476599 -130.47688 
L 509.959007 -129.518273 
L 509.502298 -128.559666 
L 509.102207 -127.601059 
L 508.754219 -126.642452 
L 508.453705 -125.683846 
z
" style="stroke: #676767; stroke-width: 2"/>
    </defs>
    <g clip-path="url(#p0d3a06c2d2)">
     <use xlink:href="#mc39a79eb3a" x="0" y="446.597187" style="fill: #93d9fc; stroke: #676767; stroke-width: 2"/>
    </g>
   </g>
   <g id="matplotlib.axis_1">
    <g id="xtick_1">
     <g id="line2d_1">
      <defs>
       <path id="mbc3f77d51d" d="M 0 0 
L 0 5 
" style="stroke: #000000; stroke-width: 1.5"/>
      </defs>
      <g>
       <use xlink:href="#mbc3f77d51d" x="117.915212" y="415.1275" style="stroke: #000000; stroke-width: 1.5"/>
      </g>
     </g>
     <g id="text_1">
      <!-- PIKAN -->
      <g transform="translate(88.915524 435.546875) scale(0.18 -0.18)">
       <defs>
        <path id="TimesNewRomanPS-BoldMT-50" d="M 1728 1919 
L 1728 744 
Q 1728 400 1770 311 
Q 1813 222 1920 169 
Q 2028 116 2316 116 
L 2316 0 
L 163 0 
L 163 116 
Q 456 116 561 170 
Q 666 225 708 312 
Q 750 400 750 744 
L 750 3494 
Q 750 3838 708 3927 
Q 666 4016 559 4069 
Q 453 4122 163 4122 
L 163 4238 
L 2009 4238 
Q 2922 4238 3319 3913 
Q 3716 3588 3716 3100 
Q 3716 2688 3459 2394 
Q 3203 2100 2753 1994 
Q 2450 1919 1728 1919 
z
M 1728 3994 
L 1728 2163 
Q 1831 2156 1884 2156 
Q 2266 2156 2472 2382 
Q 2678 2609 2678 3084 
Q 2678 3556 2472 3775 
Q 2266 3994 1856 3994 
L 1728 3994 
z
" transform="scale(0.015625)"/>
        <path id="TimesNewRomanPS-BoldMT-49" d="M 2344 116 
L 2344 0 
L 128 0 
L 128 116 
L 269 116 
Q 453 116 566 181 
Q 647 225 691 331 
Q 725 406 725 725 
L 725 3513 
Q 725 3838 690 3919 
Q 656 4000 551 4061 
Q 447 4122 269 4122 
L 128 4122 
L 128 4238 
L 2344 4238 
L 2344 4122 
L 2203 4122 
Q 2019 4122 1906 4056 
Q 1825 4013 1778 3906 
Q 1744 3831 1744 3513 
L 1744 725 
Q 1744 400 1780 319 
Q 1816 238 1920 177 
Q 2025 116 2203 116 
L 2344 116 
z
" transform="scale(0.015625)"/>
        <path id="TimesNewRomanPS-BoldMT-4b" d="M 2666 2616 
L 4156 750 
Q 4472 356 4700 216 
Q 4866 116 5050 116 
L 5050 0 
L 2844 0 
L 2844 116 
Q 3053 134 3114 181 
Q 3175 228 3175 297 
Q 3175 428 2888 791 
L 1916 2013 
L 1759 1881 
L 1759 725 
Q 1759 394 1796 312 
Q 1834 231 1940 173 
Q 2047 116 2281 116 
L 2281 0 
L 144 0 
L 144 116 
L 284 116 
Q 469 116 581 181 
Q 663 225 706 331 
Q 741 406 741 725 
L 741 3513 
Q 741 3838 706 3919 
Q 672 4000 567 4061 
Q 463 4122 284 4122 
L 144 4122 
L 144 4238 
L 2253 4238 
L 2253 4122 
Q 2038 4122 1925 4059 
Q 1844 4016 1797 3913 
Q 1759 3834 1759 3513 
L 1759 2194 
L 3331 3466 
Q 3659 3731 3659 3891 
Q 3659 4009 3525 4078 
Q 3456 4113 3184 4122 
L 3184 4238 
L 4838 4238 
L 4838 4122 
Q 4616 4106 4489 4042 
Q 4363 3978 3906 3609 
L 2666 2616 
z
" transform="scale(0.015625)"/>
        <path id="TimesNewRomanPS-BoldMT-41" d="M 2663 1206 
L 1166 1206 
L 988 794 
Q 900 588 900 453 
Q 900 275 1044 191 
Q 1128 141 1459 116 
L 1459 0 
L 50 0 
L 50 116 
Q 278 150 425 304 
Q 572 459 788 944 
L 2303 4325 
L 2363 4325 
L 3891 850 
Q 4109 356 4250 228 
Q 4356 131 4550 116 
L 4550 0 
L 2500 0 
L 2500 116 
L 2584 116 
Q 2831 116 2931 184 
Q 3000 234 3000 328 
Q 3000 384 2981 444 
Q 2975 472 2888 678 
L 2663 1206 
z
M 2556 1438 
L 1925 2897 
L 1275 1438 
L 2556 1438 
z
" transform="scale(0.015625)"/>
        <path id="TimesNewRomanPS-BoldMT-4e" d="M 1594 4238 
L 3684 1609 
L 3684 3431 
Q 3684 3813 3575 3947 
Q 3425 4128 3072 4122 
L 3072 4238 
L 4472 4238 
L 4472 4122 
Q 4203 4088 4111 4033 
Q 4019 3978 3967 3854 
Q 3916 3731 3916 3431 
L 3916 -97 
L 3809 -97 
L 944 3431 
L 944 738 
Q 944 372 1111 244 
Q 1278 116 1494 116 
L 1594 116 
L 1594 0 
L 91 0 
L 91 116 
Q 441 119 578 259 
Q 716 400 716 738 
L 716 3728 
L 625 3841 
Q 491 4009 387 4062 
Q 284 4116 91 4122 
L 91 4238 
L 1594 4238 
z
" transform="scale(0.015625)"/>
       </defs>
       <use xlink:href="#TimesNewRomanPS-BoldMT-50"/>
       <use xlink:href="#TimesNewRomanPS-BoldMT-49" x="61.083984"/>
       <use xlink:href="#TimesNewRomanPS-BoldMT-4b" x="100"/>
       <use xlink:href="#TimesNewRomanPS-BoldMT-41" x="177.783203"/>
       <use xlink:href="#TimesNewRomanPS-BoldMT-4e" x="250"/>
      </g>
     </g>
    </g>
    <g id="xtick_2">
     <g id="line2d_2">
      <g>
       <use xlink:href="#mbc3f77d51d" x="195.725301" y="415.1275" style="stroke: #000000; stroke-width: 1.5"/>
      </g>
     </g>
     <g id="text_2">
      <!-- KAN -->
      <g transform="translate(175.725613 435.546875) scale(0.18 -0.18)">
       <use xlink:href="#TimesNewRomanPS-BoldMT-4b"/>
       <use xlink:href="#TimesNewRomanPS-BoldMT-41" x="77.783203"/>
       <use xlink:href="#TimesNewRomanPS-BoldMT-4e" x="150"/>
      </g>
     </g>
    </g>
    <g id="xtick_3">
     <g id="line2d_3">
      <g>
       <use xlink:href="#mbc3f77d51d" x="273.53539" y="415.1275" style="stroke: #000000; stroke-width: 1.5"/>
      </g>
     </g>
     <g id="text_3">
      <!-- PINN -->
      <g transform="translate(251.536015 435.546875) scale(0.18 -0.18)">
       <use xlink:href="#TimesNewRomanPS-BoldMT-50"/>
       <use xlink:href="#TimesNewRomanPS-BoldMT-49" x="61.083984"/>
       <use xlink:href="#TimesNewRomanPS-BoldMT-4e" x="100"/>
       <use xlink:href="#TimesNewRomanPS-BoldMT-4e" x="172.216797"/>
      </g>
     </g>
    </g>
    <g id="xtick_4">
     <g id="line2d_4">
      <g>
       <use xlink:href="#mbc3f77d51d" x="351.34548" y="415.1275" style="stroke: #000000; stroke-width: 1.5"/>
      </g>
     </g>
     <g id="text_4">
      <!-- MLP -->
      <g transform="translate(331.350011 435.546875) scale(0.18 -0.18)">
       <defs>
        <path id="TimesNewRomanPS-BoldMT-4d" d="M 3050 1444 
L 4200 4238 
L 5925 4238 
L 5925 4122 
L 5788 4122 
Q 5600 4122 5488 4056 
Q 5409 4013 5363 3909 
Q 5328 3834 5328 3519 
L 5328 725 
Q 5328 400 5362 319 
Q 5397 238 5503 177 
Q 5609 116 5788 116 
L 5925 116 
L 5925 0 
L 3713 0 
L 3713 116 
L 3850 116 
Q 4038 116 4150 181 
Q 4228 225 4275 331 
Q 4309 406 4309 725 
L 4309 3866 
L 2684 0 
L 2609 0 
L 959 3838 
L 959 853 
Q 959 541 975 469 
Q 1016 313 1152 214 
Q 1288 116 1578 116 
L 1578 0 
L 128 0 
L 128 116 
L 172 116 
Q 313 113 434 161 
Q 556 209 618 290 
Q 681 372 716 519 
Q 722 553 722 838 
L 722 3519 
Q 722 3841 687 3920 
Q 653 4000 547 4061 
Q 441 4122 263 4122 
L 128 4122 
L 128 4238 
L 1859 4238 
L 3050 1444 
z
" transform="scale(0.015625)"/>
        <path id="TimesNewRomanPS-BoldMT-4c" d="M 4041 1488 
L 3881 0 
L 119 0 
L 119 116 
L 259 116 
Q 444 116 556 181 
Q 638 225 681 331 
Q 716 406 716 725 
L 716 3513 
Q 716 3838 681 3919 
Q 647 4000 542 4061 
Q 438 4122 259 4122 
L 119 4122 
L 119 4238 
L 2378 4238 
L 2378 4122 
L 2194 4122 
Q 2009 4122 1897 4056 
Q 1816 4013 1769 3906 
Q 1734 3831 1734 3513 
L 1734 813 
Q 1734 488 1771 398 
Q 1809 309 1919 266 
Q 1997 238 2297 238 
L 2650 238 
Q 2988 238 3213 356 
Q 3438 475 3602 731 
Q 3766 988 3913 1488 
L 4041 1488 
z
" transform="scale(0.015625)"/>
       </defs>
       <use xlink:href="#TimesNewRomanPS-BoldMT-4d"/>
       <use xlink:href="#TimesNewRomanPS-BoldMT-4c" x="94.384766"/>
       <use xlink:href="#TimesNewRomanPS-BoldMT-50" x="161.083984"/>
      </g>
     </g>
    </g>
    <g id="xtick_5">
     <g id="line2d_5">
      <g>
       <use xlink:href="#mbc3f77d51d" x="429.155569" y="415.1275" style="stroke: #000000; stroke-width: 1.5"/>
      </g>
     </g>
     <g id="text_5">
      <!-- CNN -->
      <g transform="translate(409.656506 435.546875) scale(0.18 -0.18)">
       <defs>
        <path id="TimesNewRomanPS-BoldMT-43" d="M 4272 4334 
L 4272 2866 
L 4150 2866 
Q 4013 3441 3638 3747 
Q 3263 4053 2788 4053 
Q 2391 4053 2059 3825 
Q 1728 3597 1575 3228 
Q 1378 2756 1378 2178 
Q 1378 1609 1522 1142 
Q 1666 675 1972 436 
Q 2278 197 2766 197 
Q 3166 197 3498 372 
Q 3831 547 4200 975 
L 4200 609 
Q 3844 238 3458 70 
Q 3072 -97 2556 -97 
Q 1878 -97 1351 175 
Q 825 447 539 956 
Q 253 1466 253 2041 
Q 253 2647 570 3190 
Q 888 3734 1427 4034 
Q 1966 4334 2572 4334 
Q 3019 4334 3516 4141 
Q 3803 4028 3881 4028 
Q 3981 4028 4054 4101 
Q 4128 4175 4150 4334 
L 4272 4334 
z
" transform="scale(0.015625)"/>
       </defs>
       <use xlink:href="#TimesNewRomanPS-BoldMT-43"/>
       <use xlink:href="#TimesNewRomanPS-BoldMT-4e" x="72.216797"/>
       <use xlink:href="#TimesNewRomanPS-BoldMT-4e" x="144.433594"/>
      </g>
     </g>
    </g>
    <g id="xtick_6">
     <g id="line2d_6">
      <g>
       <use xlink:href="#mbc3f77d51d" x="506.965658" y="415.1275" style="stroke: #000000; stroke-width: 1.5"/>
      </g>
     </g>
     <g id="text_6">
      <!-- Transformer -->
      <g transform="translate(457.644252 435.546875) scale(0.18 -0.18)">
       <defs>
        <path id="TimesNewRomanPS-BoldMT-54" d="M 4038 4238 
L 4038 3091 
L 3925 3091 
Q 3825 3488 3703 3661 
Q 3581 3834 3369 3938 
Q 3250 3994 2953 3994 
L 2638 3994 
L 2638 725 
Q 2638 400 2673 319 
Q 2709 238 2814 177 
Q 2919 116 3100 116 
L 3241 116 
L 3241 0 
L 1022 0 
L 1022 116 
L 1163 116 
Q 1347 116 1459 181 
Q 1541 225 1588 331 
Q 1622 406 1622 725 
L 1622 3994 
L 1316 3994 
Q 888 3994 694 3813 
Q 422 3559 350 3091 
L 231 3091 
L 231 4238 
L 4038 4238 
z
" transform="scale(0.015625)"/>
        <path id="TimesNewRomanPS-BoldMT-72" d="M 1428 2922 
L 1428 2259 
Q 1719 2713 1937 2861 
Q 2156 3009 2359 3009 
Q 2534 3009 2639 2901 
Q 2744 2794 2744 2597 
Q 2744 2388 2642 2272 
Q 2541 2156 2397 2156 
Q 2231 2156 2109 2262 
Q 1988 2369 1966 2381 
Q 1934 2400 1894 2400 
Q 1803 2400 1722 2331 
Q 1594 2225 1528 2028 
Q 1428 1725 1428 1359 
L 1428 688 
L 1431 513 
Q 1431 334 1453 284 
Q 1491 200 1564 161 
Q 1638 122 1813 113 
L 1813 0 
L 234 0 
L 234 113 
Q 425 128 492 217 
Q 559 306 559 688 
L 559 2303 
Q 559 2553 534 2622 
Q 503 2709 443 2750 
Q 384 2791 234 2806 
L 234 2922 
L 1428 2922 
z
" transform="scale(0.015625)"/>
        <path id="TimesNewRomanPS-BoldMT-61" d="M 1828 431 
Q 1294 -41 869 -41 
Q 619 -41 453 123 
Q 288 288 288 534 
Q 288 869 575 1136 
Q 863 1403 1828 1847 
L 1828 2141 
Q 1828 2472 1792 2558 
Q 1756 2644 1656 2708 
Q 1556 2772 1431 2772 
Q 1228 2772 1097 2681 
Q 1016 2625 1016 2550 
Q 1016 2484 1103 2388 
Q 1222 2253 1222 2128 
Q 1222 1975 1108 1867 
Q 994 1759 809 1759 
Q 613 1759 480 1878 
Q 347 1997 347 2156 
Q 347 2381 525 2586 
Q 703 2791 1022 2900 
Q 1341 3009 1684 3009 
Q 2100 3009 2342 2832 
Q 2584 2656 2656 2450 
Q 2700 2319 2700 1847 
L 2700 713 
Q 2700 513 2715 461 
Q 2731 409 2762 384 
Q 2794 359 2834 359 
Q 2916 359 3000 475 
L 3094 400 
Q 2938 169 2770 64 
Q 2603 -41 2391 -41 
Q 2141 -41 2000 76 
Q 1859 194 1828 431 
z
M 1828 659 
L 1828 1638 
Q 1450 1416 1266 1163 
Q 1144 994 1144 822 
Q 1144 678 1247 569 
Q 1325 484 1466 484 
Q 1622 484 1828 659 
z
" transform="scale(0.015625)"/>
        <path id="TimesNewRomanPS-BoldMT-6e" d="M 1409 2922 
L 1409 2544 
Q 1634 2788 1840 2898 
Q 2047 3009 2284 3009 
Q 2569 3009 2756 2851 
Q 2944 2694 3006 2459 
Q 3056 2281 3056 1775 
L 3056 638 
Q 3056 300 3117 217 
Q 3178 134 3372 113 
L 3372 0 
L 1894 0 
L 1894 113 
Q 2059 134 2131 250 
Q 2181 328 2181 638 
L 2181 1938 
Q 2181 2297 2153 2390 
Q 2125 2484 2058 2536 
Q 1991 2588 1909 2588 
Q 1641 2588 1409 2203 
L 1409 638 
Q 1409 309 1470 221 
Q 1531 134 1697 113 
L 1697 0 
L 219 0 
L 219 113 
Q 403 131 481 231 
Q 534 300 534 638 
L 534 2288 
Q 534 2619 473 2700 
Q 413 2781 219 2806 
L 219 2922 
L 1409 2922 
z
" transform="scale(0.015625)"/>
        <path id="TimesNewRomanPS-BoldMT-73" d="M 2063 3003 
L 2109 2006 
L 2003 2006 
Q 1813 2450 1608 2612 
Q 1403 2775 1200 2775 
Q 1072 2775 981 2689 
Q 891 2603 891 2491 
Q 891 2406 953 2328 
Q 1053 2200 1512 1889 
Q 1972 1578 2117 1361 
Q 2263 1144 2263 875 
Q 2263 631 2141 397 
Q 2019 163 1797 37 
Q 1575 -88 1306 -88 
Q 1097 -88 747 44 
Q 653 78 619 78 
Q 516 78 447 -78 
L 344 -78 
L 294 972 
L 400 972 
Q 541 559 786 353 
Q 1031 147 1250 147 
Q 1400 147 1495 239 
Q 1591 331 1591 463 
Q 1591 613 1497 722 
Q 1403 831 1078 1053 
Q 600 1384 459 1559 
Q 253 1816 253 2125 
Q 253 2463 486 2736 
Q 719 3009 1159 3009 
Q 1397 3009 1619 2894 
Q 1703 2847 1756 2847 
Q 1813 2847 1847 2870 
Q 1881 2894 1956 3003 
L 2063 3003 
z
" transform="scale(0.015625)"/>
        <path id="TimesNewRomanPS-BoldMT-66" d="M 1497 2616 
L 1497 588 
Q 1497 294 1559 219 
Q 1659 103 1928 113 
L 1928 0 
L 206 0 
L 206 113 
Q 403 116 486 158 
Q 569 200 600 275 
Q 631 350 631 588 
L 631 2616 
L 206 2616 
L 206 2922 
L 631 2922 
L 631 3138 
L 628 3284 
Q 628 3734 958 4034 
Q 1288 4334 1850 4334 
Q 2234 4334 2420 4190 
Q 2606 4047 2606 3872 
Q 2606 3731 2490 3628 
Q 2375 3525 2184 3525 
Q 2022 3525 1926 3609 
Q 1831 3694 1831 3797 
Q 1831 3825 1850 3913 
Q 1863 3966 1863 4013 
Q 1863 4078 1825 4109 
Q 1775 4156 1703 4156 
Q 1613 4156 1552 4081 
Q 1491 4006 1491 3841 
L 1497 3294 
L 1497 2922 
L 1928 2922 
L 1928 2616 
L 1497 2616 
z
" transform="scale(0.015625)"/>
        <path id="TimesNewRomanPS-BoldMT-6f" d="M 1594 3009 
Q 1975 3009 2303 2812 
Q 2631 2616 2801 2253 
Q 2972 1891 2972 1459 
Q 2972 838 2656 419 
Q 2275 -88 1603 -88 
Q 944 -88 587 375 
Q 231 838 231 1447 
Q 231 2075 595 2542 
Q 959 3009 1594 3009 
z
M 1606 2788 
Q 1447 2788 1333 2667 
Q 1219 2547 1183 2192 
Q 1147 1838 1147 1206 
Q 1147 872 1191 581 
Q 1225 359 1337 243 
Q 1450 128 1594 128 
Q 1734 128 1828 206 
Q 1950 313 1991 503 
Q 2053 800 2053 1703 
Q 2053 2234 1993 2432 
Q 1934 2631 1819 2722 
Q 1738 2788 1606 2788 
z
" transform="scale(0.015625)"/>
        <path id="TimesNewRomanPS-BoldMT-6d" d="M 1428 2922 
L 1428 2538 
Q 1669 2800 1873 2904 
Q 2078 3009 2322 3009 
Q 2603 3009 2793 2878 
Q 2984 2747 3088 2478 
Q 3338 2759 3567 2884 
Q 3797 3009 4047 3009 
Q 4350 3009 4529 2870 
Q 4709 2731 4779 2517 
Q 4850 2303 4850 1834 
L 4850 638 
Q 4850 300 4911 219 
Q 4972 138 5166 113 
L 5166 0 
L 3656 0 
L 3656 113 
Q 3834 128 3919 250 
Q 3975 334 3975 638 
L 3975 1894 
Q 3975 2284 3944 2390 
Q 3913 2497 3845 2548 
Q 3778 2600 3688 2600 
Q 3553 2600 3415 2501 
Q 3278 2403 3138 2206 
L 3138 638 
Q 3138 322 3191 241 
Q 3263 125 3466 113 
L 3466 0 
L 1953 0 
L 1953 113 
Q 2075 119 2145 173 
Q 2216 228 2239 304 
Q 2263 381 2263 638 
L 2263 1894 
Q 2263 2291 2231 2391 
Q 2200 2491 2126 2547 
Q 2053 2603 1969 2603 
Q 1844 2603 1741 2538 
Q 1594 2441 1428 2206 
L 1428 638 
Q 1428 328 1489 229 
Q 1550 131 1744 113 
L 1744 0 
L 238 0 
L 238 113 
Q 422 131 500 231 
Q 553 300 553 638 
L 553 2288 
Q 553 2619 492 2700 
Q 431 2781 238 2806 
L 238 2922 
L 1428 2922 
z
" transform="scale(0.015625)"/>
        <path id="TimesNewRomanPS-BoldMT-65" d="M 2691 1566 
L 1088 1566 
Q 1116 984 1397 647 
Q 1613 388 1916 388 
Q 2103 388 2256 492 
Q 2409 597 2584 869 
L 2691 800 
Q 2453 316 2165 114 
Q 1878 -88 1500 -88 
Q 850 -88 516 413 
Q 247 816 247 1413 
Q 247 2144 642 2576 
Q 1038 3009 1569 3009 
Q 2013 3009 2339 2645 
Q 2666 2281 2691 1566 
z
M 1922 1775 
Q 1922 2278 1867 2465 
Q 1813 2653 1697 2750 
Q 1631 2806 1522 2806 
Q 1359 2806 1256 2647 
Q 1072 2369 1072 1884 
L 1072 1775 
L 1922 1775 
z
" transform="scale(0.015625)"/>
       </defs>
       <use xlink:href="#TimesNewRomanPS-BoldMT-54"/>
       <use xlink:href="#TimesNewRomanPS-BoldMT-72" x="59.324219"/>
       <use xlink:href="#TimesNewRomanPS-BoldMT-61" x="103.708984"/>
       <use xlink:href="#TimesNewRomanPS-BoldMT-6e" x="153.708984"/>
       <use xlink:href="#TimesNewRomanPS-BoldMT-73" x="209.324219"/>
       <use xlink:href="#TimesNewRomanPS-BoldMT-66" x="248.240234"/>
       <use xlink:href="#TimesNewRomanPS-BoldMT-6f" x="281.541016"/>
       <use xlink:href="#TimesNewRomanPS-BoldMT-72" x="331.541016"/>
       <use xlink:href="#TimesNewRomanPS-BoldMT-6d" x="375.925781"/>
       <use xlink:href="#TimesNewRomanPS-BoldMT-65" x="459.226562"/>
       <use xlink:href="#TimesNewRomanPS-BoldMT-72" x="503.611328"/>
      </g>
     </g>
    </g>
   </g>
   <g id="matplotlib.axis_2">
    <g id="ytick_1">
     <g id="line2d_7">
      <defs>
       <path id="md06afcb396" d="M 0 0 
L -3.5 0 
" style="stroke: #000000; stroke-width: 0.8"/>
      </defs>
      <g>
       <use xlink:href="#md06afcb396" x="64.22625" y="318.010369" style="stroke: #000000; stroke-width: 0.8"/>
      </g>
     </g>
     <g id="text_7">
      <!-- 0.8 -->
      <g transform="translate(32.22625 324.632244) scale(0.2 -0.2)">
       <defs>
        <path id="TimesNewRomanPS-BoldMT-30" d="M 2966 2119 
Q 2966 1484 2788 934 
Q 2681 597 2501 381 
Q 2322 166 2094 39 
Q 1866 -88 1597 -88 
Q 1291 -88 1044 68 
Q 797 225 606 516 
Q 469 728 366 1081 
Q 231 1559 231 2069 
Q 231 2759 425 3338 
Q 584 3816 909 4070 
Q 1234 4325 1597 4325 
Q 1966 4325 2286 4073 
Q 2606 3822 2756 3397 
Q 2966 2813 2966 2119 
z
M 2003 2125 
Q 2003 3238 1991 3422 
Q 1959 3856 1841 4009 
Q 1763 4109 1588 4109 
Q 1453 4109 1375 4034 
Q 1259 3925 1218 3648 
Q 1178 3372 1178 1719 
Q 1178 819 1241 513 
Q 1288 291 1375 216 
Q 1463 141 1606 141 
Q 1763 141 1841 241 
Q 1972 416 1991 781 
L 2003 2125 
z
" transform="scale(0.015625)"/>
        <path id="TimesNewRomanPS-BoldMT-2e" d="M 800 963 
Q 1019 963 1170 809 
Q 1322 656 1322 441 
Q 1322 225 1169 73 
Q 1016 -78 800 -78 
Q 584 -78 432 73 
Q 281 225 281 441 
Q 281 656 432 809 
Q 584 963 800 963 
z
" transform="scale(0.015625)"/>
        <path id="TimesNewRomanPS-BoldMT-38" d="M 2181 2394 
Q 2628 2066 2801 1783 
Q 2975 1500 2975 1134 
Q 2975 622 2589 267 
Q 2203 -88 1541 -88 
Q 913 -88 569 221 
Q 225 531 225 978 
Q 225 1319 423 1575 
Q 622 1831 1084 2044 
Q 581 2428 439 2672 
Q 297 2916 297 3238 
Q 297 3663 658 3986 
Q 1019 4309 1647 4309 
Q 2253 4309 2579 4023 
Q 2906 3738 2906 3338 
Q 2906 3038 2729 2808 
Q 2553 2578 2181 2394 
z
M 1944 2553 
Q 2059 2709 2115 2903 
Q 2172 3097 2172 3328 
Q 2172 3734 1997 3950 
Q 1866 4116 1634 4116 
Q 1425 4116 1278 3964 
Q 1131 3813 1131 3588 
Q 1131 3359 1295 3114 
Q 1459 2869 1944 2553 
z
M 1319 1894 
Q 1222 1806 1181 1734 
Q 1119 1625 1069 1415 
Q 1019 1206 1019 978 
Q 1019 684 1094 486 
Q 1169 288 1308 200 
Q 1447 113 1594 113 
Q 1822 113 1978 280 
Q 2134 447 2134 738 
Q 2134 1344 1319 1894 
z
" transform="scale(0.015625)"/>
       </defs>
       <use xlink:href="#TimesNewRomanPS-BoldMT-30"/>
       <use xlink:href="#TimesNewRomanPS-BoldMT-2e" x="50"/>
       <use xlink:href="#TimesNewRomanPS-BoldMT-38" x="75"/>
      </g>
     </g>
    </g>
    <g id="ytick_2">
     <g id="line2d_8">
      <g>
       <use xlink:href="#md06afcb396" x="64.22625" y="220.572211" style="stroke: #000000; stroke-width: 0.8"/>
      </g>
     </g>
     <g id="text_8">
      <!-- 0.9 -->
      <g transform="translate(32.22625 227.194086) scale(0.2 -0.2)">
       <defs>
        <path id="TimesNewRomanPS-BoldMT-39" d="M 197 -88 
L 197 0 
Q 716 119 1077 350 
Q 1438 581 1648 922 
Q 1859 1263 1944 1706 
Q 1750 1606 1614 1567 
Q 1478 1528 1328 1528 
Q 847 1528 526 1875 
Q 206 2222 206 2825 
Q 206 3244 379 3592 
Q 553 3941 875 4133 
Q 1197 4325 1544 4325 
Q 1916 4325 2247 4112 
Q 2578 3900 2775 3497 
Q 2972 3094 2972 2578 
Q 2972 1909 2651 1296 
Q 2331 684 1697 314 
Q 1063 -56 197 -88 
z
M 1991 1969 
Q 2022 2319 2022 2584 
Q 2022 3153 1891 3644 
Q 1816 3916 1669 4044 
Q 1591 4113 1466 4113 
Q 1309 4113 1222 3978 
Q 1100 3794 1100 3275 
Q 1100 2409 1306 2081 
Q 1441 1869 1669 1869 
Q 1791 1869 1991 1969 
z
" transform="scale(0.015625)"/>
       </defs>
       <use xlink:href="#TimesNewRomanPS-BoldMT-30"/>
       <use xlink:href="#TimesNewRomanPS-BoldMT-2e" x="50"/>
       <use xlink:href="#TimesNewRomanPS-BoldMT-39" x="75"/>
      </g>
     </g>
    </g>
    <g id="ytick_3">
     <g id="line2d_9">
      <g>
       <use xlink:href="#md06afcb396" x="64.22625" y="123.134052" style="stroke: #000000; stroke-width: 0.8"/>
      </g>
     </g>
     <g id="text_9">
      <!-- 1.1 -->
      <g transform="translate(32.22625 129.755927) scale(0.2 -0.2)">
       <defs>
        <path id="TimesNewRomanPS-BoldMT-31" d="M 2084 4325 
L 2084 859 
Q 2084 469 2118 361 
Q 2153 253 2262 184 
Q 2372 116 2613 116 
L 2709 116 
L 2709 0 
L 478 0 
L 478 116 
L 591 116 
Q 863 116 978 178 
Q 1094 241 1134 350 
Q 1175 459 1175 859 
L 1175 3056 
Q 1175 3350 1147 3423 
Q 1119 3497 1042 3548 
Q 966 3600 866 3600 
Q 706 3600 478 3500 
L 422 3613 
L 1981 4325 
L 2084 4325 
z
" transform="scale(0.015625)"/>
       </defs>
       <use xlink:href="#TimesNewRomanPS-BoldMT-31"/>
       <use xlink:href="#TimesNewRomanPS-BoldMT-2e" x="50"/>
       <use xlink:href="#TimesNewRomanPS-BoldMT-31" x="75"/>
      </g>
     </g>
    </g>
    <g id="text_10">
     <!-- RMSE -->
     <g transform="translate(23.0925 258.105) rotate(-90) scale(0.24 -0.24)">
      <defs>
       <path id="TimesNewRomanPS-BoldMT-52" d="M 1700 1931 
L 1700 744 
Q 1700 400 1742 311 
Q 1784 222 1890 169 
Q 1997 116 2288 116 
L 2288 0 
L 119 0 
L 119 116 
Q 413 116 517 170 
Q 622 225 664 312 
Q 706 400 706 744 
L 706 3494 
Q 706 3838 664 3927 
Q 622 4016 515 4069 
Q 409 4122 119 4122 
L 119 4238 
L 2088 4238 
Q 2856 4238 3212 4131 
Q 3569 4025 3794 3739 
Q 4019 3453 4019 3069 
Q 4019 2600 3681 2294 
Q 3466 2100 3078 2003 
L 4097 569 
Q 4297 291 4381 222 
Q 4509 125 4678 116 
L 4678 0 
L 3344 0 
L 1978 1931 
L 1700 1931 
z
M 1700 4009 
L 1700 2153 
L 1878 2153 
Q 2313 2153 2528 2233 
Q 2744 2313 2867 2520 
Q 2991 2728 2991 3063 
Q 2991 3547 2764 3778 
Q 2538 4009 2034 4009 
L 1700 4009 
z
" transform="scale(0.015625)"/>
       <path id="TimesNewRomanPS-BoldMT-53" d="M 3006 4334 
L 3041 2922 
L 2913 2922 
Q 2822 3453 2467 3776 
Q 2113 4100 1700 4100 
Q 1381 4100 1195 3929 
Q 1009 3759 1009 3538 
Q 1009 3397 1075 3288 
Q 1166 3141 1366 2997 
Q 1513 2894 2044 2631 
Q 2788 2266 3047 1941 
Q 3303 1616 3303 1197 
Q 3303 666 2889 283 
Q 2475 -100 1838 -100 
Q 1638 -100 1459 -59 
Q 1281 -19 1013 94 
Q 863 156 766 156 
Q 684 156 593 93 
Q 503 31 447 -97 
L 331 -97 
L 331 1503 
L 447 1503 
Q 584 828 976 473 
Q 1369 119 1822 119 
Q 2172 119 2380 309 
Q 2588 500 2588 753 
Q 2588 903 2508 1043 
Q 2428 1184 2265 1311 
Q 2103 1438 1691 1641 
Q 1113 1925 859 2125 
Q 606 2325 470 2572 
Q 334 2819 334 3116 
Q 334 3622 706 3978 
Q 1078 4334 1644 4334 
Q 1850 4334 2044 4284 
Q 2191 4247 2402 4145 
Q 2613 4044 2697 4044 
Q 2778 4044 2825 4094 
Q 2872 4144 2913 4334 
L 3006 4334 
z
" transform="scale(0.015625)"/>
       <path id="TimesNewRomanPS-BoldMT-45" d="M 1744 3994 
L 1744 2269 
L 1828 2269 
Q 2231 2269 2412 2522 
Q 2594 2775 2644 3269 
L 2763 3269 
L 2763 1050 
L 2644 1050 
Q 2606 1413 2486 1644 
Q 2366 1875 2206 1954 
Q 2047 2034 1744 2034 
L 1744 841 
Q 1744 491 1773 412 
Q 1803 334 1884 284 
Q 1966 234 2147 234 
L 2400 234 
Q 2994 234 3351 509 
Q 3709 784 3866 1347 
L 3981 1347 
L 3791 0 
L 128 0 
L 128 116 
L 269 116 
Q 453 116 566 181 
Q 647 225 691 331 
Q 725 406 725 725 
L 725 3513 
Q 725 3800 709 3866 
Q 678 3975 594 4034 
Q 475 4122 269 4122 
L 128 4122 
L 128 4238 
L 3675 4238 
L 3675 2984 
L 3556 2984 
Q 3466 3444 3302 3644 
Q 3138 3844 2838 3938 
Q 2663 3994 2181 3994 
L 1744 3994 
z
" transform="scale(0.015625)"/>
      </defs>
      <use xlink:href="#TimesNewRomanPS-BoldMT-52"/>
      <use xlink:href="#TimesNewRomanPS-BoldMT-4d" x="72.216797"/>
      <use xlink:href="#TimesNewRomanPS-BoldMT-53" x="166.601562"/>
      <use xlink:href="#TimesNewRomanPS-BoldMT-45" x="222.216797"/>
     </g>
    </g>
   </g>
   <g id="line2d_10">
    <path d="M 94.572185 379.123254 
L 141.258238 379.123254 
" clip-path="url(#p0d3a06c2d2)" style="fill: none; stroke: #ff0000; stroke-width: 2; stroke-linecap: square"/>
   </g>
   <g id="line2d_11">
    <path d="M 117.915212 385.552072 
L 117.915212 372.694436 
" clip-path="url(#p0d3a06c2d2)" style="fill: none; stroke: #000000; stroke-width: 2; stroke-linecap: square"/>
   </g>
   <g id="line2d_12">
    <path d="M 172.382274 301.100414 
L 219.068328 301.100414 
" clip-path="url(#p0d3a06c2d2)" style="fill: none; stroke: #ff0000; stroke-width: 2; stroke-linecap: square"/>
   </g>
   <g id="line2d_13">
    <path d="M 195.725301 313.657559 
L 195.725301 288.543269 
" clip-path="url(#p0d3a06c2d2)" style="fill: none; stroke: #000000; stroke-width: 2; stroke-linecap: square"/>
   </g>
   <g id="line2d_14">
    <path d="M 250.192363 229.175741 
L 296.878417 229.175741 
" clip-path="url(#p0d3a06c2d2)" style="fill: none; stroke: #ff0000; stroke-width: 2; stroke-linecap: square"/>
   </g>
   <g id="line2d_15">
    <path d="M 273.53539 253.373898 
L 273.53539 204.977583 
" clip-path="url(#p0d3a06c2d2)" style="fill: none; stroke: #000000; stroke-width: 2; stroke-linecap: square"/>
   </g>
   <g id="line2d_16">
    <path d="M 328.002453 225.50954 
L 374.688506 225.50954 
" clip-path="url(#p0d3a06c2d2)" style="fill: none; stroke: #ff0000; stroke-width: 2; stroke-linecap: square"/>
   </g>
   <g id="line2d_17">
    <path d="M 351.34548 282.993371 
L 351.34548 168.025708 
" clip-path="url(#p0d3a06c2d2)" style="fill: none; stroke: #000000; stroke-width: 2; stroke-linecap: square"/>
   </g>
   <g id="line2d_18">
    <path d="M 405.812542 241.601458 
L 452.498596 241.601458 
" clip-path="url(#p0d3a06c2d2)" style="fill: none; stroke: #ff0000; stroke-width: 2; stroke-linecap: square"/>
   </g>
   <g id="line2d_19">
    <path d="M 429.155569 268.451262 
L 429.155569 214.751654 
" clip-path="url(#p0d3a06c2d2)" style="fill: none; stroke: #000000; stroke-width: 2; stroke-linecap: square"/>
   </g>
   <g id="line2d_20">
    <path d="M 483.622631 274.270328 
L 530.308685 274.270328 
" clip-path="url(#p0d3a06c2d2)" style="fill: none; stroke: #ff0000; stroke-width: 2; stroke-linecap: square"/>
   </g>
   <g id="line2d_21">
    <path d="M 506.965658 292.420503 
L 506.965658 256.120152 
" clip-path="url(#p0d3a06c2d2)" style="fill: none; stroke: #000000; stroke-width: 2; stroke-linecap: square"/>
   </g>
   <g id="patch_3">
    <path d="M 64.22625 415.1275 
L 64.22625 31.74125 
" style="fill: none; stroke: #000000; stroke-width: 0.8; stroke-linejoin: miter; stroke-linecap: square"/>
   </g>
   <g id="patch_4">
    <path d="M 560.65462 415.1275 
L 560.65462 31.74125 
" style="fill: none; stroke: #000000; stroke-width: 0.8; stroke-linejoin: miter; stroke-linecap: square"/>
   </g>
   <g id="patch_5">
    <path d="M 64.22625 415.1275 
L 560.65462 415.1275 
" style="fill: none; stroke: #000000; stroke-width: 0.8; stroke-linejoin: miter; stroke-linecap: square"/>
   </g>
   <g id="patch_6">
    <path d="M 64.22625 31.74125 
L 560.65462 31.74125 
" style="fill: none; stroke: #000000; stroke-width: 0.8; stroke-linejoin: miter; stroke-linecap: square"/>
   </g>
   <g id="PathCollection_1">
    <defs>
     <path id="mb895a09d73" d="M 0 2 
C 0.530406 2 1.03916 1.789267 1.414214 1.414214 
C 1.789267 1.03916 2 0.530406 2 0 
C 2 -0.530406 1.789267 -1.03916 1.414214 -1.414214 
C 1.03916 -1.789267 0.530406 -2 0 -2 
C -0.530406 -2 -1.03916 -1.789267 -1.414214 -1.414214 
C -1.789267 -1.03916 -2 -0.530406 -2 0 
C -2 0.530406 -1.789267 1.03916 -1.414214 1.414214 
C -1.03916 1.789267 -0.530406 2 0 2 
z
" style="stroke: #676767"/>
    </defs>
    <g clip-path="url(#p0d3a06c2d2)">
     <use xlink:href="#mb895a09d73" x="117.915212" y="381.41132" style="fill: #676767; stroke: #676767"/>
     <use xlink:href="#mb895a09d73" x="117.915212" y="380.862003" style="fill: #676767; stroke: #676767"/>
     <use xlink:href="#mb895a09d73" x="117.915212" y="382.136747" style="fill: #676767; stroke: #676767"/>
     <use xlink:href="#mb895a09d73" x="117.915212" y="373.728038" style="fill: #676767; stroke: #676767"/>
     <use xlink:href="#mb895a09d73" x="117.915212" y="372.454867" style="fill: #676767; stroke: #676767"/>
     <use xlink:href="#mb895a09d73" x="117.915212" y="372.025062" style="fill: #676767; stroke: #676767"/>
     <use xlink:href="#mb895a09d73" x="117.915212" y="382.334271" style="fill: #676767; stroke: #676767"/>
     <use xlink:href="#mb895a09d73" x="117.915212" y="370.942186" style="fill: #676767; stroke: #676767"/>
     <use xlink:href="#mb895a09d73" x="117.915212" y="385.749813" style="fill: #676767; stroke: #676767"/>
     <use xlink:href="#mb895a09d73" x="117.915212" y="389.588233" style="fill: #676767; stroke: #676767"/>
    </g>
   </g>
   <g id="PathCollection_2">
    <g clip-path="url(#p0d3a06c2d2)">
     <use xlink:href="#mb895a09d73" x="195.725301" y="310.181571" style="fill: #676767; stroke: #676767"/>
     <use xlink:href="#mb895a09d73" x="195.725301" y="289.40359" style="fill: #676767; stroke: #676767"/>
     <use xlink:href="#mb895a09d73" x="195.725301" y="313.232312" style="fill: #676767; stroke: #676767"/>
     <use xlink:href="#mb895a09d73" x="195.725301" y="306.917576" style="fill: #676767; stroke: #676767"/>
     <use xlink:href="#mb895a09d73" x="195.725301" y="321.09621" style="fill: #676767; stroke: #676767"/>
     <use xlink:href="#mb895a09d73" x="195.725301" y="299.189314" style="fill: #676767; stroke: #676767"/>
     <use xlink:href="#mb895a09d73" x="195.725301" y="286.885923" style="fill: #676767; stroke: #676767"/>
     <use xlink:href="#mb895a09d73" x="195.725301" y="308.606698" style="fill: #676767; stroke: #676767"/>
     <use xlink:href="#mb895a09d73" x="195.725301" y="288.093575" style="fill: #676767; stroke: #676767"/>
     <use xlink:href="#mb895a09d73" x="195.725301" y="287.397369" style="fill: #676767; stroke: #676767"/>
    </g>
   </g>
   <g id="PathCollection_3">
    <g clip-path="url(#p0d3a06c2d2)">
     <use xlink:href="#mb895a09d73" x="273.53539" y="238.72187" style="fill: #676767; stroke: #676767"/>
     <use xlink:href="#mb895a09d73" x="273.53539" y="172.687078" style="fill: #676767; stroke: #676767"/>
     <use xlink:href="#mb895a09d73" x="273.53539" y="248.877719" style="fill: #676767; stroke: #676767"/>
     <use xlink:href="#mb895a09d73" x="273.53539" y="255.020037" style="fill: #676767; stroke: #676767"/>
     <use xlink:href="#mb895a09d73" x="273.53539" y="248.917889" style="fill: #676767; stroke: #676767"/>
     <use xlink:href="#mb895a09d73" x="273.53539" y="234.959768" style="fill: #676767; stroke: #676767"/>
     <use xlink:href="#mb895a09d73" x="273.53539" y="218.064733" style="fill: #676767; stroke: #676767"/>
     <use xlink:href="#mb895a09d73" x="273.53539" y="211.969179" style="fill: #676767; stroke: #676767"/>
     <use xlink:href="#mb895a09d73" x="273.53539" y="237.604722" style="fill: #676767; stroke: #676767"/>
     <use xlink:href="#mb895a09d73" x="273.53539" y="224.934413" style="fill: #676767; stroke: #676767"/>
    </g>
   </g>
   <g id="PathCollection_4">
    <g clip-path="url(#p0d3a06c2d2)">
     <use xlink:href="#mb895a09d73" x="351.34548" y="264.003321" style="fill: #676767; stroke: #676767"/>
     <use xlink:href="#mb895a09d73" x="351.34548" y="238.177816" style="fill: #676767; stroke: #676767"/>
     <use xlink:href="#mb895a09d73" x="351.34548" y="137.501751" style="fill: #676767; stroke: #676767"/>
     <use xlink:href="#mb895a09d73" x="351.34548" y="235.554036" style="fill: #676767; stroke: #676767"/>
     <use xlink:href="#mb895a09d73" x="351.34548" y="121.707589" style="fill: #676767; stroke: #676767"/>
     <use xlink:href="#mb895a09d73" x="351.34548" y="261.260361" style="fill: #676767; stroke: #676767"/>
     <use xlink:href="#mb895a09d73" x="351.34548" y="267.624585" style="fill: #676767; stroke: #676767"/>
     <use xlink:href="#mb895a09d73" x="351.34548" y="275.961695" style="fill: #676767; stroke: #676767"/>
     <use xlink:href="#mb895a09d73" x="351.34548" y="270.676687" style="fill: #676767; stroke: #676767"/>
     <use xlink:href="#mb895a09d73" x="351.34548" y="182.627555" style="fill: #676767; stroke: #676767"/>
    </g>
   </g>
   <g id="PathCollection_5">
    <g clip-path="url(#p0d3a06c2d2)">
     <use xlink:href="#mb895a09d73" x="429.155569" y="207.406331" style="fill: #676767; stroke: #676767"/>
     <use xlink:href="#mb895a09d73" x="429.155569" y="220.546101" style="fill: #676767; stroke: #676767"/>
     <use xlink:href="#mb895a09d73" x="429.155569" y="234.036696" style="fill: #676767; stroke: #676767"/>
     <use xlink:href="#mb895a09d73" x="429.155569" y="285.551104" style="fill: #676767; stroke: #676767"/>
     <use xlink:href="#mb895a09d73" x="429.155569" y="264.727235" style="fill: #676767; stroke: #676767"/>
     <use xlink:href="#mb895a09d73" x="429.155569" y="262.414413" style="fill: #676767; stroke: #676767"/>
     <use xlink:href="#mb895a09d73" x="429.155569" y="252.053115" style="fill: #676767; stroke: #676767"/>
     <use xlink:href="#mb895a09d73" x="429.155569" y="218.635346" style="fill: #676767; stroke: #676767"/>
     <use xlink:href="#mb895a09d73" x="429.155569" y="259.850224" style="fill: #676767; stroke: #676767"/>
     <use xlink:href="#mb895a09d73" x="429.155569" y="210.794014" style="fill: #676767; stroke: #676767"/>
    </g>
   </g>
   <g id="PathCollection_6">
    <g clip-path="url(#p0d3a06c2d2)">
     <use xlink:href="#mb895a09d73" x="506.965658" y="286.768376" style="fill: #676767; stroke: #676767"/>
     <use xlink:href="#mb895a09d73" x="506.965658" y="288.140824" style="fill: #676767; stroke: #676767"/>
     <use xlink:href="#mb895a09d73" x="506.965658" y="263.394716" style="fill: #676767; stroke: #676767"/>
     <use xlink:href="#mb895a09d73" x="506.965658" y="298.009369" style="fill: #676767; stroke: #676767"/>
     <use xlink:href="#mb895a09d73" x="506.965658" y="294.144784" style="fill: #676767; stroke: #676767"/>
     <use xlink:href="#mb895a09d73" x="506.965658" y="269.819437" style="fill: #676767; stroke: #676767"/>
     <use xlink:href="#mb895a09d73" x="506.965658" y="248.915227" style="fill: #676767; stroke: #676767"/>
     <use xlink:href="#mb895a09d73" x="506.965658" y="284.197713" style="fill: #676767; stroke: #676767"/>
     <use xlink:href="#mb895a09d73" x="506.965658" y="256.753716" style="fill: #676767; stroke: #676767"/>
     <use xlink:href="#mb895a09d73" x="506.965658" y="252.559117" style="fill: #676767; stroke: #676767"/>
    </g>
   </g>
   <g id="text_11">
    <!-- (%) -->
    <g transform="translate(43.900937 28.74125) scale(0.22 -0.22)">
     <defs>
      <path id="TimesNewRomanPS-BoldMT-28" d="M 2056 4334 
L 2056 4191 
Q 1731 3978 1578 3775 
Q 1366 3494 1247 3053 
Q 1097 2506 1097 1525 
Q 1097 600 1233 87 
Q 1369 -425 1603 -741 
Q 1766 -959 2056 -1125 
L 2056 -1281 
Q 1303 -1028 779 -248 
Q 256 531 256 1544 
Q 256 2544 778 3314 
Q 1300 4084 2056 4334 
z
" transform="scale(0.015625)"/>
      <path id="TimesNewRomanPS-BoldMT-25" d="M 4916 4334 
L 1906 -178 
L 1488 -178 
L 4494 4334 
L 4916 4334 
z
M 1494 4334 
Q 1938 4334 2242 4020 
Q 2547 3706 2547 3209 
Q 2547 2700 2240 2383 
Q 1934 2066 1481 2066 
Q 1034 2066 739 2372 
Q 444 2678 444 3178 
Q 444 3694 747 4014 
Q 1050 4334 1494 4334 
z
M 1494 4169 
Q 1425 4169 1381 4128 
Q 1303 4056 1264 3879 
Q 1225 3703 1225 3150 
Q 1225 2709 1278 2469 
Q 1309 2331 1384 2263 
Q 1431 2222 1494 2222 
Q 1563 2222 1603 2259 
Q 1675 2325 1709 2472 
Q 1763 2709 1763 3138 
Q 1763 3663 1713 3897 
Q 1678 4059 1600 4134 
Q 1563 4169 1494 4169 
z
M 4894 2097 
Q 5347 2097 5651 1786 
Q 5956 1475 5956 972 
Q 5956 463 5647 144 
Q 5338 -175 4900 -175 
Q 4466 -175 4161 144 
Q 3856 463 3856 963 
Q 3856 1466 4153 1781 
Q 4450 2097 4894 2097 
z
M 4903 1934 
Q 4841 1934 4797 1897 
Q 4722 1828 4681 1658 
Q 4641 1488 4641 1006 
Q 4641 494 4688 269 
Q 4722 109 4803 38 
Q 4844 0 4909 0 
Q 4969 0 5006 34 
Q 5084 106 5122 269 
Q 5175 497 5175 959 
Q 5175 1447 5125 1672 
Q 5088 1834 5013 1900 
Q 4975 1934 4903 1934 
z
" transform="scale(0.015625)"/>
      <path id="TimesNewRomanPS-BoldMT-29" d="M 78 -1281 
L 78 -1138 
Q 403 -922 556 -719 
Q 766 -438 888 0 
Q 1038 550 1038 1531 
Q 1038 2456 902 2967 
Q 766 3478 531 3794 
Q 369 4013 78 4178 
L 78 4334 
Q 831 4081 1354 3301 
Q 1878 2522 1878 1509 
Q 1878 513 1354 -257 
Q 831 -1028 78 -1281 
z
" transform="scale(0.015625)"/>
     </defs>
     <use xlink:href="#TimesNewRomanPS-BoldMT-28"/>
     <use xlink:href="#TimesNewRomanPS-BoldMT-25" x="33.300781"/>
     <use xlink:href="#TimesNewRomanPS-BoldMT-29" x="133.300781"/>
    </g>
   </g>
   <g id="text_12">
    <!-- HUST dataset -->
    <g transform="translate(228.289497 25.74125) scale(0.28 -0.28)">
     <defs>
      <path id="TimesNewRomanPS-BoldMT-48" d="M 1750 2038 
L 1750 725 
Q 1750 400 1786 319 
Q 1822 238 1926 177 
Q 2031 116 2209 116 
L 2350 116 
L 2350 0 
L 134 0 
L 134 116 
L 275 116 
Q 459 116 572 181 
Q 653 225 697 331 
Q 731 406 731 725 
L 731 3513 
Q 731 3838 697 3919 
Q 663 4000 558 4061 
Q 453 4122 275 4122 
L 134 4122 
L 134 4238 
L 2350 4238 
L 2350 4122 
L 2209 4122 
Q 2025 4122 1913 4056 
Q 1831 4013 1784 3906 
Q 1750 3831 1750 3513 
L 1750 2313 
L 3247 2313 
L 3247 3513 
Q 3247 3838 3212 3919 
Q 3178 4000 3072 4061 
Q 2966 4122 2788 4122 
L 2650 4122 
L 2650 4238 
L 4863 4238 
L 4863 4122 
L 4725 4122 
Q 4538 4122 4428 4056 
Q 4347 4013 4300 3906 
Q 4266 3831 4266 3513 
L 4266 725 
Q 4266 400 4300 319 
Q 4334 238 4440 177 
Q 4547 116 4725 116 
L 4863 116 
L 4863 0 
L 2650 0 
L 2650 116 
L 2788 116 
Q 2975 116 3084 181 
Q 3166 225 3213 331 
Q 3247 406 3247 725 
L 3247 2038 
L 1750 2038 
z
" transform="scale(0.015625)"/>
      <path id="TimesNewRomanPS-BoldMT-55" d="M 150 4238 
L 2338 4238 
L 2338 4122 
L 2228 4122 
Q 1981 4122 1889 4070 
Q 1797 4019 1758 3928 
Q 1719 3838 1719 3475 
L 1719 1400 
Q 1719 831 1805 647 
Q 1891 463 2087 341 
Q 2284 219 2584 219 
Q 2928 219 3170 373 
Q 3413 528 3533 800 
Q 3653 1072 3653 1747 
L 3653 3475 
Q 3653 3759 3593 3881 
Q 3534 4003 3444 4050 
Q 3303 4122 3047 4122 
L 3047 4238 
L 4513 4238 
L 4513 4122 
L 4425 4122 
Q 4247 4122 4128 4050 
Q 4009 3978 3956 3834 
Q 3916 3734 3916 3475 
L 3916 1866 
Q 3916 1119 3817 787 
Q 3719 456 3337 178 
Q 2956 -100 2297 -100 
Q 1747 -100 1447 47 
Q 1038 247 869 559 
Q 700 872 700 1400 
L 700 3475 
Q 700 3841 659 3930 
Q 619 4019 519 4072 
Q 419 4125 150 4122 
L 150 4238 
z
" transform="scale(0.015625)"/>
      <path id="TimesNewRomanPS-BoldMT-20" transform="scale(0.015625)"/>
      <path id="TimesNewRomanPS-BoldMT-64" d="M 3056 4238 
L 3056 875 
Q 3056 534 3075 472 
Q 3100 369 3170 319 
Q 3241 269 3416 256 
L 3416 153 
L 2181 -88 
L 2181 375 
Q 1959 106 1786 9 
Q 1613 -88 1394 -88 
Q 834 -88 509 413 
Q 247 819 247 1409 
Q 247 1881 409 2254 
Q 572 2628 855 2818 
Q 1138 3009 1463 3009 
Q 1672 3009 1834 2928 
Q 1997 2847 2181 2644 
L 2181 3525 
Q 2181 3859 2153 3928 
Q 2116 4019 2041 4062 
Q 1966 4106 1759 4106 
L 1759 4238 
L 3056 4238 
z
M 2181 2256 
Q 1950 2700 1616 2700 
Q 1500 2700 1425 2638 
Q 1309 2541 1236 2297 
Q 1163 2053 1163 1550 
Q 1163 997 1244 731 
Q 1325 466 1466 347 
Q 1538 288 1663 288 
Q 1938 288 2181 719 
L 2181 2256 
z
" transform="scale(0.015625)"/>
      <path id="TimesNewRomanPS-BoldMT-74" d="M 1375 3991 
L 1375 2922 
L 2069 2922 
L 2069 2613 
L 1375 2613 
L 1375 809 
Q 1375 556 1398 482 
Q 1422 409 1481 364 
Q 1541 319 1591 319 
Q 1794 319 1975 628 
L 2069 559 
Q 1816 -41 1247 -41 
Q 969 -41 776 114 
Q 584 269 531 459 
Q 500 566 500 1034 
L 500 2613 
L 119 2613 
L 119 2722 
Q 513 3000 789 3306 
Q 1066 3613 1272 3991 
L 1375 3991 
z
" transform="scale(0.015625)"/>
     </defs>
     <use xlink:href="#TimesNewRomanPS-BoldMT-48"/>
     <use xlink:href="#TimesNewRomanPS-BoldMT-55" x="77.783203"/>
     <use xlink:href="#TimesNewRomanPS-BoldMT-53" x="150"/>
     <use xlink:href="#TimesNewRomanPS-BoldMT-54" x="205.615234"/>
     <use xlink:href="#TimesNewRomanPS-BoldMT-20" x="270.564453"/>
     <use xlink:href="#TimesNewRomanPS-BoldMT-64" x="295.564453"/>
     <use xlink:href="#TimesNewRomanPS-BoldMT-61" x="351.179688"/>
     <use xlink:href="#TimesNewRomanPS-BoldMT-74" x="401.179688"/>
     <use xlink:href="#TimesNewRomanPS-BoldMT-61" x="434.480469"/>
     <use xlink:href="#TimesNewRomanPS-BoldMT-73" x="484.480469"/>
     <use xlink:href="#TimesNewRomanPS-BoldMT-65" x="523.396484"/>
     <use xlink:href="#TimesNewRomanPS-BoldMT-74" x="567.78125"/>
    </g>
   </g>
  </g>
 </g>
 <defs>
  <clipPath id="p0d3a06c2d2">
   <rect x="64.22625" y="31.74125" width="496.42837" height="383.38625"/>
  </clipPath>
 </defs>
</svg>
